<svg width="123" height="219" viewBox="0 0 123 219" fill="none" xmlns="http://www.w3.org/2000/svg">
<path d="M51.8838 7.03197C63.0423 -4.12655 81.7482 -1.66446 89.6387 12.0017L118.993 62.8454C121.1 66.4938 122.209 70.6327 122.209 74.8454V149.669C122.209 156.091 119.635 162.246 115.062 166.756L69.6309 211.566C58.9182 222.132 41.2367 220.348 32.8506 207.855L4.07324 164.983C1.41817 161.028 7.56859e-06 156.371 0 151.607V68.8562C4.04102e-06 62.491 2.52843 56.3864 7.0293 51.8855L51.8838 7.03197ZM72.3838 58.0085C64.5947 50.2236 51.9698 50.2236 44.1807 58.0085L31.1934 70.989C27.0382 75.1419 27.0382 81.8781 31.1934 86.031C35.3482 90.1838 35.3482 96.9192 31.1934 101.072L17.0879 115.17C13.4502 118.805 13.4503 124.702 17.0879 128.338C20.7228 131.971 26.6141 131.971 30.249 128.338L72.3838 86.2263C80.1786 78.4354 80.1787 65.7993 72.3838 58.0085Z" fill="#4F8A5B"/>
</svg>
