<svg width="244" height="403" viewBox="0 0 244 403" fill="none" xmlns="http://www.w3.org/2000/svg">
<path d="M148.352 300.525C153.184 295.693 161.019 295.693 165.852 300.525C170.684 305.358 170.684 313.193 165.852 318.025L147.102 336.775C141.665 342.212 141.581 350.973 146.847 356.514L147.357 357.037C152.623 362.578 152.538 371.339 147.102 376.775L128.072 395.805C118.7 405.177 103.504 405.177 94.131 395.805L90.5724 392.246C81.1999 382.874 81.1999 367.677 90.5724 358.305L148.352 300.525ZM129.102 0C142.356 0 153.102 10.7453 153.102 24V100.256C153.102 106.667 155.667 112.812 160.226 117.32L236.478 192.73C241.036 197.239 243.602 203.384 243.602 209.795V234.275C243.602 247.53 232.857 258.275 219.602 258.275H24.0148C8.04117 258.275 -3.47495 242.963 0.957209 227.616L37.6594 100.538C38.2845 98.3736 38.6017 96.1319 38.6017 93.8789V24C38.6019 10.7454 49.3471 9.89613e-05 62.6017 0H129.102Z" fill="#0076B6"/>
</svg>
