<svg width="180" height="221" viewBox="0 0 180 221" fill="none" xmlns="http://www.w3.org/2000/svg">
<path d="M17.7883 18.9694L85.4819 0.830996C100.725 -3.25334 115.694 8.23259 115.694 24.0132V111.935C115.694 125.19 126.439 135.935 139.694 135.935H155.194C168.448 135.935 179.194 146.68 179.194 159.935V179.6C179.194 184.193 177.875 188.69 175.395 192.557L164.276 209.893C159.863 216.774 152.25 220.936 144.075 220.936H84.3723C71.1175 220.936 60.595 210.114 58.3532 197.05C54.0911 172.213 42.4083 145.932 17.0781 132.032C7.55524 126.806 0 117.683 0 106.82V42.1517C0 31.2891 7.29593 21.7809 17.7883 18.9694Z" fill="#F39800"/>
</svg>
