<svg width="108" height="239" viewBox="0 0 108 239" fill="none" xmlns="http://www.w3.org/2000/svg">
<path d="M51.3109 0H24C10.7452 0 0 10.7452 0 24V214.06C0 227.314 10.7452 238.06 24 238.06H28.1436C36.718 238.06 44.641 233.485 48.9282 226.06L70.2846 189.069C72.3911 185.421 73.5 181.282 73.5 177.069V139.58C73.5 135.367 74.6089 131.229 76.7154 127.58L104 80.322C110.627 68.843 106.694 54.1648 95.2154 47.5374L84.5946 41.4054C77.7292 37.4417 73.5 30.1165 73.5 22.1891C73.5 9.9344 63.5656 0 51.3109 0Z" fill="#7BA23F"/>
</svg>
