<svg width="204" height="245" viewBox="0 0 204 245" fill="none" xmlns="http://www.w3.org/2000/svg">
<path d="M28.5 0H24C10.7452 0 0 10.7452 0 24V91.5589C0 97.9241 2.52857 104.029 7.02944 108.529L82.4706 183.971C86.9714 188.471 93.0759 191 99.4411 191H124.554C132.358 191 139.674 194.794 144.171 201.172L169.227 236.718C175.19 245.177 186.86 247.242 195.364 241.344C203.974 235.373 206.058 223.523 200.001 214.972L181.415 188.734C178.543 184.678 177 179.831 177 174.861V125.99C177 117.344 172.35 109.367 164.826 105.106L64.674 48.3937C57.1505 44.1334 52.5 36.1557 52.5 27.5096V24C52.5 10.7452 41.7548 0 28.5 0Z" fill="#6A2C70"/>
</svg>
