<svg width="625" height="592" viewBox="0 0 625 592" fill="none" xmlns="http://www.w3.org/2000/svg">
<path d="M231.353 491.591L213.283 416.904C210.112 403.798 196.769 395.875 183.745 399.365L17.7883 443.833C7.29594 446.645 0 456.153 0 467.015V469.599C0 482.854 10.8403 493.418 23.8565 495.922C68.9095 504.589 108.202 535.883 131.439 561.941C142.377 574.208 162.992 576.878 174.552 565.194L225.087 514.114C230.938 508.2 233.309 499.677 231.353 491.591Z" fill="#1B4E8A"/>
<path d="M396 310.742V227C396 213.745 406.745 203 420 203H427C440.255 203 451 213.745 451 227V327.745C451 338.532 443.804 347.994 433.408 350.874L354.616 372.704C345.005 375.367 335.5 368.137 335.5 358.164C335.5 351.53 339.832 345.675 346.176 343.736L379.018 333.693C389.109 330.607 396 321.293 396 310.742Z" fill="#F58220"/>
<path d="M338.5 0H334C320.745 0 310 10.7452 310 24V91.5589C310 97.9241 312.529 104.029 317.029 108.529L392.471 183.971C396.971 188.471 403.076 191 409.441 191H434.554C442.358 191 449.674 194.794 454.171 201.172L479.227 236.718C485.19 245.177 496.86 247.242 505.364 241.344C513.974 235.373 516.058 223.523 510.001 214.972L491.415 188.734C488.543 184.678 487 179.831 487 174.861V125.99C487 117.344 482.35 109.367 474.826 105.106L374.674 48.3937C367.151 44.1334 362.5 36.1557 362.5 27.5096V24C362.5 10.7452 351.755 0 338.5 0Z" fill="#6A2C70"/>
<path d="M289.25 300.75C294.083 295.918 301.918 295.918 306.75 300.75C311.583 305.582 311.583 313.418 306.75 318.25L288 337C282.564 342.436 282.479 351.198 287.745 356.738L288.255 357.262C293.522 362.802 293.437 371.563 288 377L268.971 396.029C259.598 405.402 244.402 405.402 235.029 396.029L231.471 392.471C222.098 383.098 222.098 367.902 231.471 358.529L289.25 300.75ZM270 0.224609C283.255 0.224609 294 10.9699 294 24.2246V100.48C294 106.892 296.566 113.037 301.124 117.545L377.376 192.955C381.935 197.463 384.5 203.608 384.5 210.02V234.5C384.5 247.755 373.755 258.5 360.5 258.5H164.913C148.94 258.5 137.423 243.187 141.856 227.841L178.558 100.763C179.183 98.5982 179.5 96.3565 179.5 94.1035V24.2246C179.5 10.97 190.246 0.224708 203.5 0.224609H270Z" fill="#0076B6"/>
<path d="M353.095 389.734L420.789 371.595C436.032 367.511 451 378.997 451 394.777V482.699C451 495.954 461.745 506.699 475 506.699H490.5C503.755 506.699 514.5 517.444 514.5 530.699V550.364C514.5 554.958 513.182 559.455 510.702 563.321L499.583 580.657C495.169 587.539 487.556 591.7 479.381 591.7H419.679C406.424 591.7 395.902 580.878 393.66 567.814C389.398 542.977 377.715 516.697 352.385 502.796C342.862 497.57 335.307 488.447 335.307 477.584V412.916C335.307 402.053 342.603 392.545 353.095 389.734Z" fill="#F39800"/>
<path d="M515.811 257H488.5C475.245 257 464.5 267.745 464.5 281V471.06C464.5 484.314 475.245 495.06 488.5 495.06H492.644C501.218 495.06 509.141 490.485 513.428 483.06L534.785 446.069C536.891 442.421 538 438.282 538 434.069V396.58C538 392.367 539.109 388.229 541.215 384.58L568.5 337.322C575.127 325.843 571.194 311.165 559.715 304.537L549.095 298.405C542.229 294.442 538 287.117 538 279.189C538 266.934 528.066 257 515.811 257Z" fill="#7BA23F"/>
<path d="M554.384 27.1162C565.542 15.958 584.248 18.4207 592.139 32.0869L621.493 82.9307C623.6 86.5791 624.709 90.7179 624.709 94.9307V169.753C624.709 176.175 622.135 182.33 617.562 186.84L572.131 231.651C561.418 242.218 543.737 240.433 535.351 227.94L506.573 185.067C503.918 181.112 502.5 176.456 502.5 171.692V88.9414C502.5 82.5763 505.028 76.4716 509.529 71.9707L554.384 27.1162ZM574.884 78.0938C567.095 70.3089 554.47 70.3089 546.681 78.0938L533.693 91.0742C529.538 95.2271 529.538 101.963 533.693 106.116C537.848 110.269 537.848 117.004 533.693 121.157L519.588 135.255C515.95 138.891 515.95 144.787 519.588 148.423C523.223 152.056 529.114 152.056 532.749 148.423L574.884 106.312C582.679 98.5207 582.679 85.8846 574.884 78.0938Z" fill="#4F8A5B"/>
</svg>
