<svg width="658" height="1207" viewBox="0 0 658 1207" fill="none" xmlns="http://www.w3.org/2000/svg">
<path d="M352.04 416.244V332.514C352.04 323.678 359.204 316.514 368.04 316.514H384.935C393.771 316.514 400.935 323.678 400.935 332.514V431.47C400.935 438.662 396.137 444.97 389.207 446.89L315.25 467.38C306.705 469.747 298.256 463.32 298.256 454.454C298.256 448.557 302.107 443.352 307.747 441.627L340.719 431.545C347.446 429.488 352.04 423.279 352.04 416.244Z" fill="#F58220"/>
<path d="M306.261 136.049H291.589C282.752 136.049 275.589 143.212 275.589 152.049V219.654C275.589 223.898 277.275 227.967 280.275 230.968L350.467 301.16C353.468 304.161 357.538 305.846 361.781 305.846H389.084C394.286 305.846 399.164 308.376 402.161 312.628L426.459 347.097C431.523 354.281 441.433 356.035 448.655 351.026L449.888 350.171C457.2 345.1 458.97 335.037 453.826 327.775L435.884 302.446C433.969 299.742 432.941 296.511 432.941 293.197V244.943C432.941 239.179 429.84 233.86 424.825 231.02L330.377 177.538C325.361 174.698 322.261 169.379 322.261 163.615V152.049C322.261 143.212 315.098 136.049 306.261 136.049Z" fill="#6A2C70"/>
<path d="M257.143 403.413C261.439 399.118 268.404 399.118 272.7 403.413C276.996 407.709 276.996 414.675 272.7 418.971L256.032 435.639C251.199 440.472 251.123 448.261 255.805 453.187L256.258 453.652C260.94 458.577 260.865 466.367 256.032 471.2L235.341 491.889C229.093 498.137 218.963 498.137 212.714 491.889L202.004 481.179C195.756 474.931 195.756 464.8 202.004 458.552L257.143 403.413ZM245.367 136.248C254.203 136.249 261.367 143.412 261.367 152.248V227.603C261.367 231.877 263.077 235.973 266.116 238.979L337.071 309.151C340.11 312.156 341.82 316.253 341.82 320.527V349.854C341.82 358.69 334.656 365.854 325.82 365.854H139.513C128.864 365.854 121.187 355.644 124.142 345.413L158.949 224.901C159.365 223.458 159.577 221.963 159.577 220.461V152.248C159.577 143.412 166.74 136.248 175.577 136.248H245.367Z" fill="#0076B6"/>
<path d="M497.761 155.238C505.2 147.799 517.67 149.441 522.931 158.552L553.219 211.012C554.623 213.444 555.362 216.203 555.362 219.012V289.19C555.362 293.472 553.646 297.574 550.598 300.581L504.034 346.509C496.892 353.553 485.104 352.364 479.514 344.035L449.435 299.224C447.665 296.587 446.72 293.482 446.72 290.307V212.906C446.72 208.663 448.406 204.593 451.406 201.593L497.761 155.238ZM510.459 204.864C503.871 198.28 493.194 198.28 486.606 204.864L474.45 217.014C470.757 220.705 470.757 226.693 474.45 230.385C478.144 234.077 478.144 240.065 474.45 243.757L461.911 256.289C458.677 259.521 458.677 264.764 461.911 267.996C465.143 271.226 470.38 271.226 473.611 267.996L511.679 229.949C518.271 223.36 518.271 212.673 511.679 206.084L510.459 204.864Z" fill="#4F8A5B"/>
<path d="M210.087 589.855C211.543 595.789 209.492 602.034 204.802 605.95L153.568 648.721C147.245 654.001 138.072 653.528 130.974 649.355C145.742 630.621 170.505 609.021 210.078 589.821L210.087 589.855ZM168.68 489.653C177.343 487.332 186.223 492.585 188.36 501.296L206.999 577.269C165.415 597.051 138.518 619.788 121.986 640.334C101.185 613.108 60.832 582.165 15.9521 575.969C7.19863 574.76 1.73512e-05 567.692 0 558.855V547.128C2.49824e-05 539.886 4.86446 533.547 11.8594 531.673L168.68 489.653Z" fill="#1B4E8A"/>
<path d="M478.279 523.363C478.279 526.171 477.54 528.931 476.136 531.363L454.895 568.153C452.036 573.103 446.754 576.153 441.038 576.153H428.938C420.102 576.153 412.938 568.989 412.938 560.153V532.394C426.484 525.803 440.75 518.868 455.767 511.548C463.548 507.755 471.049 503.974 478.279 500.208V523.363ZM480.423 479.176C479.234 481.236 478.522 483.53 478.332 485.89C469.415 490.623 460.054 495.389 450.226 500.18C437.26 506.5 424.837 512.541 412.938 518.329V496.133L443.902 481.842C457.575 475.382 475.459 466.1 494.782 454.304L480.423 479.176ZM462.279 364.52C471.116 364.52 478.279 371.684 478.279 380.52V386.397C478.279 392.113 481.329 397.395 486.279 400.253L502.205 409.449C509.575 413.704 512.277 422.936 508.521 430.448C482.205 448.254 456.631 461.839 438.518 470.399L412.938 482.205V380.52C412.938 371.683 420.102 364.52 428.938 364.52H462.279Z" fill="#7BA23F"/>
<path d="M400.937 570.501C400.937 579.337 408.1 586.501 416.937 586.501H441.388C450.224 586.501 457.388 593.664 457.388 602.501V626.883C457.388 629.945 456.509 632.944 454.855 635.521L442.552 654.704C439.609 659.291 434.534 662.066 429.084 662.066H367.756C358.919 662.066 351.861 654.878 350.748 646.112C347.709 622.167 337.242 595.485 312.009 582.359C337.128 569.427 366.593 554.967 400.937 538.238V570.501ZM400.937 524.168C361.84 543.199 328.713 559.428 300.936 573.847C299.148 571.165 298.086 568.056 298.086 564.712V549.141L400.937 501.673V524.168ZM380.795 464.595C390.957 461.872 400.937 469.529 400.937 480.05V487.743L298.086 535.213V499.034C298.086 491.792 302.949 485.453 309.944 483.579L380.795 464.595Z" fill="#F39800"/>
<path d="M213.73 588.075C149.258 618.415 122.724 655.249 114.685 677.305C112.536 683.203 117.34 688.617 123.617 688.617H167.652C173.543 688.617 178.211 683.807 179.131 677.987C187.489 625.128 261.465 592.186 450.225 500.18C651.309 402.168 657 315.537 657 273.17C657 243.017 635.98 208.293 621.99 190.013C619.438 186.678 614.599 186.423 611.541 189.302C608.674 191.999 608.47 196.461 610.74 199.677C627.651 223.622 633.603 260.301 633.603 273.17C633.603 377.506 501.445 454.652 443.902 481.842L213.73 588.075Z" fill="#BFB3A2"/>
<path d="M550.637 116.565L550.655 96.2442C550.66 90.0922 557.318 86.2483 562.648 89.3196L580.256 99.4643C581.473 100.165 582.853 100.534 584.257 100.533L604.28 100.515C610.445 100.509 614.299 107.185 611.212 112.521L601.185 129.852C600.481 131.068 600.111 132.447 600.109 133.852L600.091 154.172C600.086 160.324 593.428 164.168 588.097 161.097L570.49 150.952C569.273 150.251 567.893 149.883 566.489 149.884L546.466 149.902C540.301 149.907 536.447 143.232 539.534 137.896L549.561 120.564C550.264 119.349 550.635 117.969 550.637 116.565Z" fill="#F5C13A"/>
<path d="M546.595 40.5142L546.608 25.5944C546.611 21.7494 550.772 19.347 554.104 21.2665L567.032 28.7149C567.792 29.1531 568.654 29.3833 569.532 29.3825L584.251 29.3694C588.104 29.366 590.513 33.5382 588.584 36.8733L581.213 49.6137C580.773 50.3734 580.541 51.2355 580.541 52.1131L580.527 67.0329C580.524 70.8779 576.363 73.2804 573.031 71.3608L560.104 63.9124C559.343 63.4743 558.481 63.244 557.603 63.2448L542.884 63.2579C539.031 63.2614 536.622 59.0891 538.552 55.7541L545.922 43.0136C546.362 42.2539 546.594 41.3919 546.595 40.5142Z" fill="#F5C13A"/>
<path d="M483.365 1205.01C481.156 1205.01 479.365 1203.22 479.365 1201.01V1092.15C479.365 1089.94 481.156 1088.15 483.365 1088.15H494.9C496.504 1088.15 497.952 1089.1 498.58 1090.58L513.815 1126.37C515.521 1130.38 521.495 1129.16 521.495 1124.8V1092.15C521.495 1089.94 523.286 1088.15 525.495 1088.15H538.849C541.058 1088.15 542.849 1089.94 542.849 1092.15V1201.01C542.849 1203.22 541.058 1205.01 538.849 1205.01H528.111C526.469 1205.01 524.994 1204.01 524.391 1202.48L509.16 1163.95C507.538 1159.84 501.44 1161 501.44 1165.42V1201.01C501.44 1203.22 499.649 1205.01 497.44 1205.01H483.365Z" fill="#222222"/>
<path d="M399.097 1205.01C396.59 1205.01 394.701 1202.73 395.166 1200.27L415.73 1091.4C416.087 1089.51 417.738 1088.15 419.661 1088.15H442.456C444.382 1088.15 446.035 1089.52 446.388 1091.41L466.683 1200.28C467.142 1202.74 465.254 1205.01 462.751 1205.01H447.177C445.209 1205.01 443.533 1203.58 443.226 1201.64L440.396 1183.72C440.089 1181.77 438.414 1180.34 436.445 1180.34H426.092C424.133 1180.34 422.461 1181.76 422.145 1183.7L419.203 1201.66C418.886 1203.59 417.215 1205.01 415.256 1205.01H399.097ZM425.62 1160.36C425.293 1162.77 427.16 1164.9 429.584 1164.9H432.829C435.253 1164.9 437.12 1162.77 436.793 1160.36L435.17 1148.44C434.542 1143.82 427.871 1143.82 427.243 1148.44L425.62 1160.36Z" fill="#222222"/>
<path d="M347.81 1205.01C345.874 1205.01 344.217 1203.63 343.873 1201.72L324.25 1092.86C323.808 1090.4 325.694 1088.15 328.187 1088.15H342.059C344.027 1088.15 345.703 1089.58 346.01 1091.52L353.937 1141.63C354.652 1146.16 361.178 1146.12 361.845 1141.59L369.212 1091.56C369.501 1089.6 371.186 1088.15 373.17 1088.15H388.292C390.789 1088.15 392.676 1090.41 392.227 1092.86L372.335 1201.73C371.988 1203.63 370.332 1205.01 368.4 1205.01H347.81Z" fill="#222222"/>
<path d="M253.548 1205.01C251.041 1205.01 249.152 1202.73 249.617 1200.27L270.181 1091.4C270.538 1089.51 272.189 1088.15 274.112 1088.15H296.907C298.833 1088.15 300.486 1089.52 300.839 1091.41L321.134 1200.28C321.593 1202.74 319.705 1205.01 317.202 1205.01H301.628C299.66 1205.01 297.984 1203.58 297.677 1201.64L294.848 1183.72C294.541 1181.77 292.865 1180.34 290.897 1180.34H280.543C278.584 1180.34 276.913 1181.76 276.596 1183.7L273.654 1201.66C273.338 1203.59 271.667 1205.01 269.707 1205.01H253.548ZM280.071 1160.36C279.744 1162.77 281.611 1164.9 284.035 1164.9H287.281C289.704 1164.9 291.571 1162.77 291.244 1160.36L289.621 1148.44C288.993 1143.82 282.322 1143.82 281.694 1148.44L280.071 1160.36Z" fill="#222222"/>
<path d="M171.836 1205.01C169.627 1205.01 167.836 1203.22 167.836 1201.01V1092.15C167.836 1089.94 169.627 1088.15 171.836 1088.15H200.011C207.898 1088.15 214.727 1089.01 220.499 1090.74C226.27 1092.47 230.743 1095.6 233.917 1100.12C237.187 1104.55 238.822 1110.85 238.822 1119.02C238.822 1123.83 238.438 1128.11 237.668 1131.86C236.898 1135.61 235.456 1138.88 233.34 1141.67C231.876 1143.63 229.933 1145.35 227.51 1146.85C225.849 1147.87 224.928 1149.83 225.459 1151.71L239.112 1199.92C239.835 1202.48 237.917 1205.01 235.264 1205.01H216.999C215.157 1205.01 213.553 1203.76 213.114 1201.97L201.768 1155.69C201.329 1153.9 199.725 1152.64 197.883 1152.64H197.662C195.453 1152.64 193.662 1154.43 193.662 1156.64V1201.01C193.662 1203.22 191.871 1205.01 189.662 1205.01H171.836ZM193.662 1133.78C193.662 1135.99 195.453 1137.78 197.662 1137.78H200.876C204.531 1137.78 207.369 1137.15 209.389 1135.9C211.409 1134.56 212.804 1132.68 213.573 1130.28C214.439 1127.77 214.872 1124.79 214.872 1121.33C214.872 1116.33 213.958 1112.43 212.13 1109.64C210.303 1106.85 206.936 1105.46 202.031 1105.46H197.662C195.453 1105.46 193.662 1107.25 193.662 1109.46V1133.78Z" fill="#222222"/>
<path d="M87.5685 1205.01C85.0617 1205.01 83.1727 1202.73 83.638 1200.27L104.202 1091.4C104.559 1089.51 106.21 1088.15 108.132 1088.15H130.927C132.854 1088.15 134.507 1089.52 134.86 1091.41L155.155 1200.28C155.613 1202.74 153.725 1205.01 151.222 1205.01H135.649C133.68 1205.01 132.005 1203.58 131.698 1201.64L128.868 1183.72C128.561 1181.77 126.885 1180.34 124.917 1180.34H114.564C112.604 1180.34 110.933 1181.76 110.616 1183.7L107.675 1201.66C107.358 1203.59 105.687 1205.01 103.727 1205.01H87.5685ZM114.092 1160.36C113.765 1162.77 115.632 1164.9 118.055 1164.9H121.301C123.725 1164.9 125.591 1162.77 125.265 1160.36L123.642 1148.44C123.014 1143.82 116.343 1143.82 115.715 1148.44L114.092 1160.36Z" fill="#222222"/>
<path d="M40.5432 1206.74C31.694 1206.74 24.6723 1205.16 19.4782 1201.98C14.3802 1198.71 10.7732 1194.19 8.65709 1188.42C6.54097 1182.55 5.48291 1175.68 5.48291 1167.79V1125.66C5.48291 1117.58 6.54097 1110.65 8.65709 1104.88C10.7732 1099.01 14.3802 1094.49 19.4782 1091.32C24.6723 1088.15 31.694 1086.56 40.5432 1086.56C49.2001 1086.56 55.9332 1088 60.7426 1090.89C65.6481 1093.68 69.1109 1097.62 71.1308 1102.72C73.1507 1107.82 74.1607 1113.68 74.1607 1120.32V1126.42C74.1607 1128.63 72.3699 1130.42 70.1607 1130.42H52.9115C50.7024 1130.42 48.9115 1128.63 48.9115 1126.42V1118.73C48.9115 1116.42 48.7672 1114.21 48.4787 1112.1C48.2863 1109.98 47.613 1108.25 46.4587 1106.9C45.3045 1105.46 43.3327 1104.74 40.5432 1104.74C37.85 1104.74 35.83 1105.46 34.4834 1106.9C33.233 1108.35 32.4154 1110.17 32.0306 1112.38C31.7421 1114.5 31.5978 1116.76 31.5978 1119.17V1174.14C31.5978 1176.73 31.7902 1179.14 32.1749 1181.35C32.6559 1183.47 33.5215 1185.2 34.772 1186.55C36.1186 1187.8 38.0423 1188.42 40.5432 1188.42C43.2365 1188.42 45.1602 1187.75 46.3145 1186.4C47.4687 1184.96 48.1901 1183.13 48.4787 1180.92C48.7672 1178.71 48.9115 1176.45 48.9115 1174.14V1165.87C48.9115 1163.66 50.7024 1161.87 52.9115 1161.87H70.1607C72.3699 1161.87 74.1607 1163.66 74.1607 1165.87V1171.97C74.1607 1178.61 73.1507 1184.57 71.1308 1189.86C69.2071 1195.06 65.7924 1199.19 60.8869 1202.27C56.0775 1205.25 49.2963 1206.74 40.5432 1206.74Z" fill="#222222"/>
<path d="M451.49 1050.74C444.179 1050.74 438.071 1049.45 433.166 1046.85C428.26 1044.25 424.557 1040.26 422.056 1034.87C419.907 1030.16 418.575 1024.28 418.059 1017.22C417.912 1015.2 419.386 1013.44 421.394 1013.14L435.441 1011.02C437.829 1010.66 439.973 1012.49 440.146 1014.9C440.359 1017.86 440.725 1020.38 441.246 1022.47C442.111 1025.54 443.266 1027.76 444.708 1029.1C446.247 1030.45 448.075 1031.12 450.191 1031.12C452.884 1031.12 454.616 1030.21 455.385 1028.38C456.251 1026.55 456.684 1024.63 456.684 1022.61C456.684 1017.8 455.529 1013.76 453.221 1010.49C450.912 1007.12 447.786 1003.76 443.843 1000.39L433.743 991.59C429.318 987.838 425.567 983.606 422.489 978.893C419.507 974.083 418.016 968.168 418.016 961.146C418.016 951.239 420.95 943.688 426.818 938.494C432.685 933.204 440.668 930.559 450.768 930.559C457.02 930.559 462.022 931.617 465.773 933.733C469.621 935.849 472.507 938.638 474.43 942.101C476.45 945.468 477.797 949.075 478.47 952.922C478.975 955.381 479.334 957.778 479.549 960.114C479.739 962.167 478.206 963.936 476.159 964.189L461.915 965.946C459.574 966.235 457.507 964.443 457.331 962.091C457.207 960.429 457.039 958.912 456.828 957.539C456.539 954.942 455.866 952.97 454.808 951.624C453.75 950.181 452.115 949.459 449.902 949.459C447.498 949.459 445.718 950.469 444.564 952.489C443.506 954.509 442.977 956.529 442.977 958.549C442.977 962.878 443.987 966.437 446.007 969.226C448.123 971.919 450.864 974.757 454.231 977.739L463.898 986.251C468.996 990.58 473.276 995.485 476.739 1000.97C480.298 1006.45 482.077 1013.23 482.077 1021.31C482.077 1026.79 480.827 1031.8 478.326 1036.32C475.825 1040.74 472.266 1044.25 467.649 1046.85C463.128 1049.45 457.742 1050.74 451.49 1050.74Z" fill="#222222"/>
<path d="M338.521 1049.01C336.311 1049.01 334.521 1047.22 334.521 1045.01V936.146C334.521 933.937 336.311 932.146 338.521 932.146H366.695C374.583 932.146 381.412 933.011 387.183 934.743C392.954 936.474 397.427 939.6 400.601 944.121C403.872 948.546 405.507 954.846 405.507 963.022C405.507 967.831 405.122 972.112 404.353 975.863C403.583 979.614 402.14 982.885 400.024 985.674C398.561 987.625 396.617 989.35 394.194 990.846C392.534 991.872 391.612 993.83 392.144 995.708L405.797 1043.92C406.52 1046.48 404.602 1049.01 401.948 1049.01H383.684C381.842 1049.01 380.238 1047.76 379.799 1045.97L368.452 999.687C368.014 997.898 366.41 996.639 364.567 996.639H364.347C362.138 996.639 360.347 998.43 360.347 1000.64V1045.01C360.347 1047.22 358.556 1049.01 356.347 1049.01H338.521ZM360.347 977.778C360.347 979.988 362.138 981.778 364.347 981.778H367.561C371.216 981.778 374.054 981.153 376.073 979.903C378.093 978.556 379.488 976.681 380.258 974.276C381.123 971.775 381.556 968.793 381.556 965.33C381.556 960.329 380.642 956.433 378.815 953.644C376.987 950.854 373.621 949.459 368.715 949.459H364.347C362.138 949.459 360.347 951.25 360.347 953.459V977.778Z" fill="#222222"/>
<path d="M273.988 1049.01C271.779 1049.01 269.988 1047.22 269.988 1045.01V936.146C269.988 933.937 271.779 932.146 273.988 932.146H318.507C320.716 932.146 322.507 933.937 322.507 936.146V945.748C322.507 947.957 320.716 949.748 318.507 949.748H299.815C297.605 949.748 295.815 951.539 295.815 953.748V974.749C295.815 976.958 297.605 978.749 299.815 978.749H312.158C314.367 978.749 316.158 980.539 316.158 982.749V992.639C316.158 994.849 314.367 996.639 312.158 996.639H299.815C297.605 996.639 295.815 998.43 295.815 1000.64V1027.56C295.815 1029.76 297.605 1031.56 299.815 1031.56H318.795C321.004 1031.56 322.795 1033.35 322.795 1035.56V1045.01C322.795 1047.22 321.004 1049.01 318.795 1049.01H273.988Z" fill="#222222"/>
<path d="M192.126 1049.01C189.917 1049.01 188.126 1047.22 188.126 1045.01V936.146C188.126 933.937 189.917 932.146 192.126 932.146H209.952C212.161 932.146 213.952 933.937 213.952 936.146V959.643C213.952 964.026 219.986 965.217 221.652 961.163L232.556 934.626C233.172 933.125 234.634 932.146 236.256 932.146H252.861C255.706 932.146 257.641 935.031 256.563 937.663L237.76 983.541C237.388 984.45 237.363 985.465 237.69 986.391L257.948 1043.68C258.868 1046.28 256.937 1049.01 254.177 1049.01H236.475C234.745 1049.01 233.211 1047.9 232.673 1046.26L218.177 1001.9C217.599 1000.13 215.206 999.866 214.256 1001.47C214.057 1001.8 213.952 1002.18 213.952 1002.57V1045.01C213.952 1047.22 212.161 1049.01 209.952 1049.01H192.126Z" fill="#222222"/>
<path d="M107.858 1049.01C105.351 1049.01 103.462 1046.73 103.928 1044.27L124.491 935.403C124.848 933.514 126.499 932.146 128.422 932.146H151.217C153.143 932.146 154.796 933.519 155.149 935.413L175.444 1044.28C175.903 1046.74 174.015 1049.01 171.512 1049.01H155.938C153.97 1049.01 152.294 1047.58 151.987 1045.64L149.158 1027.72C148.851 1025.77 147.175 1024.34 145.207 1024.34H134.853C132.894 1024.34 131.223 1025.76 130.906 1027.7L127.964 1045.66C127.648 1047.59 125.977 1049.01 124.017 1049.01H107.858ZM134.381 1004.36C134.055 1006.77 135.921 1008.9 138.345 1008.9H141.591C144.014 1008.9 145.881 1006.77 145.554 1004.36L143.931 992.437C143.303 987.823 136.632 987.823 136.004 992.437L134.381 1004.36Z" fill="#222222"/>
<path d="M10.7069 1049.01C8.47076 1049.01 6.66889 1047.18 6.70754 1044.94L8.5892 936.077C8.62691 933.895 10.4064 932.146 12.5886 932.146H33.0442C34.9669 932.146 36.6176 933.514 36.9746 935.403L45.4182 980.088C46.2329 984.399 52.3917 984.443 53.2681 980.144L62.3987 935.347C62.7784 933.484 64.4169 932.146 66.3181 932.146H85.8117C87.9939 932.146 89.7734 933.895 89.8111 936.077L91.6927 1044.94C91.7314 1047.18 89.9295 1049.01 87.6933 1049.01H77.3296C75.1638 1049.01 73.3914 1047.29 73.3311 1045.12L72.3815 1011C72.2473 1006.18 65.2713 1005.67 64.4425 1010.42L58.2905 1045.7C57.9565 1047.62 56.2939 1049.01 54.3499 1049.01H44.7396C42.8098 1049.01 41.1552 1047.64 40.8057 1045.74L34.0512 1009.06C33.1792 1004.33 26.2247 1004.88 26.1183 1009.7L25.3359 1045.1C25.2879 1047.28 23.5116 1049.01 21.3369 1049.01H10.7069Z" fill="#222222"/>
<path d="M635.399 893.013C633.19 893.013 631.399 891.223 631.399 889.013V780.146C631.399 777.937 633.19 776.146 635.399 776.146H653.226C655.435 776.146 657.226 777.937 657.226 780.146V889.013C657.226 891.223 655.435 893.013 653.226 893.013H635.399Z" fill="#222222"/>
<path d="M550.434 893.013C548.224 893.013 546.434 891.223 546.434 889.013V780.146C546.434 777.937 548.224 776.146 550.434 776.146H576.877C581.879 776.146 586.592 776.531 591.016 777.3C595.537 778.07 599.529 779.56 602.992 781.773C606.455 783.889 609.148 786.967 611.072 791.007C613.091 794.95 614.101 800.193 614.101 806.733C614.101 811.447 613.38 815.438 611.937 818.709C610.591 821.883 608.619 824.432 606.022 826.356C604.595 827.453 604.8 832.431 606.342 833.358C607.035 833.775 607.698 834.23 608.33 834.724C611.408 837.032 613.717 840.158 615.256 844.102C616.891 848.046 617.708 852.807 617.708 858.386C617.708 864.446 616.891 869.688 615.256 874.113C613.717 878.441 611.456 882 608.474 884.789C605.493 887.579 601.789 889.647 597.365 890.994C593.036 892.34 588.035 893.013 582.36 893.013H550.434ZM572.26 870.978C572.26 873.187 574.051 874.978 576.26 874.978H577.743C583.418 874.978 587.313 873.535 589.429 870.65C591.642 867.764 592.748 863.532 592.748 857.953C592.748 853.529 592.267 850.018 591.305 847.421C590.343 844.824 588.756 842.948 586.544 841.794C584.331 840.543 581.35 839.918 577.598 839.918H576.26C574.051 839.918 572.26 841.709 572.26 843.918V870.978ZM572.26 818.893C572.26 821.102 574.051 822.893 576.26 822.893H577.31C581.253 822.893 584.235 822.316 586.255 821.161C588.275 819.911 589.622 818.132 590.295 815.823C591.065 813.515 591.449 810.725 591.449 807.455C591.449 804.377 590.872 801.828 589.718 799.808C588.66 797.692 587.025 796.105 584.812 795.047C582.696 793.989 580.003 793.459 576.733 793.459H576.26C574.051 793.459 572.26 795.25 572.26 797.459V818.893Z" fill="#222222"/>
<path d="M507.181 893.013C504.972 893.013 503.181 891.223 503.181 889.013V780.146C503.181 777.937 504.972 776.146 507.181 776.146H525.007C527.216 776.146 529.007 777.937 529.007 780.146V889.013C529.007 891.223 527.216 893.013 525.007 893.013H507.181Z" fill="#222222"/>
<path d="M419.407 893.013C417.198 893.013 415.407 891.223 415.407 889.013V780.146C415.407 777.937 417.198 776.146 419.407 776.146H437.234C439.443 776.146 441.234 777.937 441.234 780.146V819.47C441.234 821.679 443.024 823.47 445.234 823.47H455.413C457.622 823.47 459.413 821.679 459.413 819.47V780.146C459.413 777.937 461.204 776.146 463.413 776.146H481.239C483.448 776.146 485.239 777.937 485.239 780.146V889.013C485.239 891.223 483.448 893.013 481.239 893.013H463.413C461.204 893.013 459.413 891.223 459.413 889.013V845.938C459.413 843.729 457.622 841.938 455.413 841.938H445.234C443.024 841.938 441.234 843.729 441.234 845.938V889.013C441.234 891.223 439.443 893.013 437.234 893.013H419.407Z" fill="#222222"/>
<path d="M371.881 894.745C364.571 894.745 358.463 893.446 353.557 890.849C348.652 888.252 344.949 884.26 342.448 878.874C340.299 874.162 338.966 868.278 338.451 861.222C338.303 859.197 339.778 857.437 341.785 857.135L355.832 855.024C358.221 854.665 360.365 856.49 360.538 858.899C360.75 861.861 361.117 864.384 361.637 866.466C362.503 869.544 363.657 871.756 365.1 873.103C366.639 874.449 368.467 875.123 370.583 875.123C373.276 875.123 375.007 874.209 375.777 872.381C376.642 870.554 377.075 868.63 377.075 866.61C377.075 861.801 375.921 857.761 373.613 854.49C371.304 851.124 368.178 847.757 364.234 844.391L354.135 835.59C349.71 831.838 345.959 827.606 342.881 822.893C339.899 818.083 338.408 812.168 338.408 805.146C338.408 795.239 341.342 787.688 347.209 782.494C353.077 777.204 361.06 774.559 371.16 774.559C377.412 774.559 382.414 775.617 386.165 777.733C390.012 779.849 392.898 782.638 394.822 786.101C396.842 789.468 398.188 793.075 398.862 796.922C399.366 799.381 399.726 801.778 399.941 804.114C400.13 806.167 398.597 807.936 396.551 808.189L382.307 809.946C379.966 810.235 377.898 808.443 377.723 806.091C377.598 804.429 377.431 802.912 377.22 801.539C376.931 798.942 376.258 796.97 375.2 795.624C374.142 794.181 372.506 793.459 370.294 793.459C367.889 793.459 366.11 794.469 364.956 796.489C363.898 798.509 363.369 800.529 363.369 802.549C363.369 806.878 364.379 810.437 366.398 813.226C368.515 815.919 371.256 818.757 374.622 821.739L384.289 830.251C389.387 834.58 393.668 839.485 397.13 844.968C400.689 850.451 402.469 857.232 402.469 865.311C402.469 870.794 401.218 875.796 398.717 880.317C396.217 884.741 392.658 888.252 388.041 890.849C383.52 893.446 378.133 894.745 371.881 894.745Z" fill="#222222"/>
<path d="M289.795 894.745C281.042 894.745 274.116 893.206 269.018 890.128C263.92 887.05 260.265 882.625 258.053 876.854C255.841 871.083 254.734 864.205 254.734 856.222V812.793C254.734 804.713 255.841 797.836 258.053 792.161C260.265 786.486 263.92 782.157 269.018 779.176C274.116 776.098 281.042 774.559 289.795 774.559C298.644 774.559 305.618 776.098 310.715 779.176C315.91 782.157 319.613 786.486 321.825 792.161C324.037 797.836 325.144 804.713 325.144 812.793V856.222C325.144 864.205 324.037 871.083 321.825 876.854C319.613 882.625 315.91 887.05 310.715 890.128C305.618 893.206 298.644 894.745 289.795 894.745ZM289.795 876.421C292.488 876.421 294.46 875.748 295.71 874.401C296.961 873.055 297.778 871.323 298.163 869.207C298.548 867.091 298.74 864.927 298.74 862.714V806.445C298.74 804.136 298.548 801.972 298.163 799.952C297.778 797.836 296.961 796.105 295.71 794.758C294.46 793.411 292.488 792.738 289.795 792.738C287.294 792.738 285.418 793.411 284.168 794.758C282.917 796.105 282.1 797.836 281.715 799.952C281.33 801.972 281.138 804.136 281.138 806.445V862.714C281.138 864.927 281.282 867.091 281.571 869.207C281.955 871.323 282.725 873.055 283.879 874.401C285.13 875.748 287.101 876.421 289.795 876.421Z" fill="#222222"/>
<path d="M158.37 893.013C156.133 893.013 154.331 891.18 154.37 888.944L156.252 780.077C156.29 777.895 158.069 776.146 160.251 776.146H180.707C182.629 776.146 184.28 777.514 184.637 779.403L193.081 824.088C193.896 828.399 200.054 828.443 200.931 824.144L210.061 779.347C210.441 777.484 212.079 776.146 213.981 776.146H233.474C235.656 776.146 237.436 777.895 237.474 780.077L239.355 888.944C239.394 891.18 237.592 893.013 235.356 893.013H224.992C222.826 893.013 221.054 891.29 220.994 889.125L220.044 855C219.91 850.179 212.934 849.672 212.105 854.425L205.953 889.701C205.619 891.616 203.957 893.013 202.013 893.013H192.402C190.472 893.013 188.818 891.636 188.468 889.738L181.714 853.061C180.842 848.326 173.887 848.883 173.781 853.697L172.999 889.102C172.95 891.276 171.174 893.013 168.999 893.013H158.37Z" fill="#222222"/>
<path d="M103.666 894.745C94.9132 894.745 87.9877 893.206 82.8898 890.128C77.7919 887.05 74.1367 882.625 71.9244 876.854C69.7121 871.083 68.606 864.205 68.606 856.222V812.793C68.606 804.713 69.7121 797.836 71.9244 792.161C74.1367 786.486 77.7919 782.157 82.8898 779.176C87.9877 776.098 94.9132 774.559 103.666 774.559C112.516 774.559 119.489 776.098 124.587 779.176C129.781 782.157 133.484 786.486 135.697 792.161C137.909 797.836 139.015 804.713 139.015 812.793V856.222C139.015 864.205 137.909 871.083 135.697 876.854C133.484 882.625 129.781 887.05 124.587 890.128C119.489 893.206 112.516 894.745 103.666 894.745ZM103.666 876.421C106.36 876.421 108.331 875.748 109.582 874.401C110.832 873.055 111.65 871.323 112.035 869.207C112.419 867.091 112.612 864.927 112.612 862.714V806.445C112.612 804.136 112.419 801.972 112.035 799.952C111.65 797.836 110.832 796.105 109.582 794.758C108.331 793.411 106.36 792.738 103.666 792.738C101.165 792.738 99.2897 793.411 98.0393 794.758C96.7889 796.105 95.9713 797.836 95.5865 799.952C95.2018 801.972 95.0094 804.136 95.0094 806.445V862.714C95.0094 864.927 95.1537 867.091 95.4422 869.207C95.827 871.323 96.5965 873.055 97.7507 874.401C99.0012 875.748 100.973 876.421 103.666 876.421Z" fill="#222222"/>
<path d="M21.6023 893.013C19.3932 893.013 17.6023 891.223 17.6023 889.013V799.335C17.6023 797.126 15.8114 795.335 13.6023 795.335H4C1.79086 795.335 0 793.544 0 791.335V780.146C0 777.937 1.79086 776.146 4 776.146H57.0309C59.24 776.146 61.0309 777.937 61.0309 780.146V791.335C61.0309 793.544 59.24 795.335 57.0309 795.335H47.5729C45.3638 795.335 43.5729 797.126 43.5729 799.335V889.013C43.5729 891.223 41.782 893.013 39.5729 893.013H21.6023Z" fill="#222222"/>
</svg>
