<svg width="1241" height="545" viewBox="0 0 1241 545" fill="none" xmlns="http://www.w3.org/2000/svg">
<path d="M278.364 326.653V266.273C278.364 257.436 285.528 250.273 294.364 250.273H301.026C309.863 250.273 317.026 257.436 317.026 266.273V338.623C317.026 345.815 312.228 352.122 305.298 354.042L249.274 369.564C242.518 371.436 235.836 366.354 235.836 359.343C235.836 354.681 238.882 350.565 243.341 349.201L267.043 341.953C273.77 339.896 278.364 333.687 278.364 326.653Z" fill="#F58220"/>
<path d="M238.816 107.576H233.912C225.075 107.576 217.912 114.739 217.912 123.576V172.297C217.912 176.54 219.597 180.61 222.598 183.61L276.138 237.151C279.139 240.152 283.209 241.837 287.452 241.837H305.917C311.12 241.837 315.997 244.367 318.995 248.619L336.868 273.974C341.06 279.92 349.263 281.372 355.241 277.226C361.293 273.029 362.758 264.699 358.501 258.688L345.276 240.018C343.361 237.314 342.332 234.083 342.332 230.77V195.632C342.332 189.868 339.232 184.549 334.216 181.709L262.932 141.344C257.916 138.503 254.816 133.185 254.816 127.421V123.576C254.816 114.739 247.653 107.576 238.816 107.576Z" fill="#6A2C70"/>
<path d="M203.326 318.985C206.723 315.588 212.23 315.588 215.626 318.985C219.023 322.382 219.023 327.889 215.626 331.286L202.447 344.467C198.686 348.228 198.568 354.252 202.094 358.155L202.799 358.897C206.325 362.799 206.208 368.823 202.447 372.584L188.455 386.576C182.206 392.825 172.075 392.825 165.827 386.576L162.094 382.843C155.846 376.595 155.846 366.464 162.094 360.216L203.326 318.985ZM190.665 107.734C199.501 107.734 206.664 114.897 206.665 123.734V178.571C206.665 182.845 208.374 186.942 211.414 189.948L265.531 243.467C268.57 246.473 270.281 250.569 270.281 254.843V273.285C270.281 282.122 263.117 289.285 254.281 289.285H114.766C104.117 289.285 96.4391 279.077 99.394 268.846L125.549 178.287C125.966 176.844 126.177 175.35 126.177 173.848V123.734C126.177 114.897 133.341 107.734 142.177 107.734H190.665Z" fill="#0076B6"/>
<path d="M390.501 125.835C397.94 118.396 410.411 120.038 415.671 129.148L436.989 166.073C438.394 168.505 439.133 171.264 439.133 174.073V227.266C439.133 231.548 437.416 235.651 434.368 238.658L401.426 271.151C394.284 278.195 382.496 277.005 376.905 268.677L355.942 237.447C354.172 234.81 353.228 231.706 353.228 228.53V169.735C353.228 165.492 354.914 161.422 357.914 158.422L390.501 125.835ZM404.108 162.47C398.633 156.999 389.759 156.999 384.284 162.47L375.154 171.595C372.233 174.515 372.234 179.249 375.154 182.169C378.075 185.088 378.075 189.823 375.154 192.742L365.239 202.652C362.682 205.208 362.682 209.352 365.239 211.908C367.794 214.462 371.935 214.462 374.49 211.908L404.108 182.306C409.588 176.83 409.588 167.947 404.108 162.47Z" fill="#4F8A5B"/>
<path d="M165.984 466.444C166.565 471.724 164.484 477.009 160.336 480.472L125.248 509.766C119.644 514.444 111.711 514.634 104.879 511.814C116.675 497.41 135.915 481.052 165.984 466.444ZM130.074 388.061C138.738 385.74 147.617 390.993 149.754 399.704L163.678 456.458C130.869 472.066 109.62 489.997 96.541 506.215C96.0324 505.692 95.5501 505.146 95.0977 504.579C78.8296 484.167 49.1275 461.684 15.9219 455.941C7.21473 454.435 0 447.383 0 438.546V435.192C0 427.95 4.86444 421.611 11.8594 419.737L130.074 388.061Z" fill="#1B4E8A"/>
<path d="M378.182 412.934C378.182 415.742 377.442 418.501 376.038 420.934L360.658 447.573C357.8 452.524 352.518 455.573 346.802 455.573H342.516C333.679 455.573 326.516 448.41 326.516 439.573V420.973C337.227 415.761 348.508 410.277 360.382 404.489C366.534 401.49 372.465 398.5 378.182 395.522V412.934ZM380.325 378.114C379.249 379.978 378.564 382.035 378.303 384.158C371.228 387.914 363.801 391.698 356 395.5C345.748 400.497 335.924 405.273 326.516 409.85V392.3L351 381C361.811 375.891 375.952 368.55 391.231 359.223L380.325 378.114ZM362.584 288.231C371.198 288.231 378.182 295.215 378.182 303.829C378.182 309.402 381.155 314.551 385.98 317.337L394.2 322.083C400.838 325.915 403.69 333.785 401.446 340.799C380.867 354.663 360.916 365.253 346.742 371.951L326.516 381.286V304.231C326.516 295.395 333.679 288.231 342.516 288.231H362.584Z" fill="#7BA23F"/>
<path d="M317.026 447.755C317.026 456.591 324.19 463.755 333.026 463.755H345.662C354.499 463.755 361.662 470.918 361.662 479.755V494.704C361.662 497.766 360.784 500.764 359.131 503.342L350.92 516.143C347.978 520.731 342.902 523.506 337.452 523.506H294.139C285.302 523.506 278.277 516.299 276.862 507.576C273.959 489.675 265.625 470.534 247.113 460.692C246.98 460.622 246.849 460.547 246.718 460.474C266.578 450.25 289.874 438.818 317.026 425.593V447.755ZM317.026 414.468C286.472 429.341 260.529 442.051 238.723 453.352C236.84 450.592 235.7 447.405 235.7 443.957V434.215L317.026 396.68V414.468ZM296.885 368.491C307.047 365.768 317.026 373.426 317.026 383.946V385.666L235.7 423.201V397.163C235.7 389.921 240.565 383.582 247.56 381.708L296.885 368.491Z" fill="#F39800"/>
<path d="M169 465C118.021 488.99 97.0402 518.115 90.6837 535.555C88.984 540.219 92.7828 544.5 97.7463 544.5H132.565C137.224 544.5 140.914 540.696 141.642 536.095C148.251 494.298 206.745 468.25 356 395.5C515 318 519.5 249.5 519.5 216C519.5 192.157 502.879 164.7 491.817 150.247C489.799 147.609 485.973 147.408 483.555 149.684C481.288 151.817 481.126 155.345 482.922 157.887C496.293 176.822 501 205.824 501 216C501 298.5 396.5 359.5 351 381L169 465Z" fill="#BFB3A2"/>
<path d="M435.397 91.7211L435.408 78.9957C435.413 72.8436 442.071 68.9998 447.402 72.0711L458.428 78.4239C459.645 79.125 461.025 79.4934 462.429 79.4922L474.907 79.4811C481.072 79.4756 484.926 86.1511 481.839 91.4872L475.59 102.288C474.887 103.503 474.516 104.883 474.515 106.287L474.503 119.012C474.498 125.164 467.84 129.008 462.51 125.937L451.483 119.584C450.267 118.883 448.887 118.515 447.482 118.516L435.004 118.527C428.84 118.533 424.985 111.857 428.073 106.521L434.321 95.7201C435.024 94.5046 435.395 93.1254 435.397 91.7211Z" fill="#F5C13A"/>
<path d="M432.2 31.7548L432.209 22.0466C432.212 18.2016 436.374 15.7992 439.705 17.7187L448.117 22.5653C448.877 23.0035 449.74 23.2337 450.618 23.233L460.16 23.2245C464.013 23.221 466.421 27.3933 464.492 30.7283L459.714 38.9876C459.274 39.7473 459.042 40.6093 459.041 41.487L459.033 51.1952C459.029 55.0402 454.868 57.4426 451.537 55.5231L443.125 50.6765C442.364 50.2383 441.502 50.0081 440.624 50.0089L431.082 50.0174C427.229 50.0208 424.82 45.8486 426.75 42.5135L431.528 34.2542C431.968 33.4945 432.2 32.6325 432.2 31.7548Z" fill="#F5C13A"/>
<path d="M1066.87 535C1064.66 535 1062.87 533.209 1062.87 531V422.132C1062.87 419.923 1064.66 418.132 1066.87 418.132H1078.4C1080 418.132 1081.45 419.09 1082.08 420.566L1097.31 456.357C1099.02 460.365 1105 459.146 1105 454.791V422.132C1105 419.923 1106.79 418.132 1109 418.132H1122.35C1124.56 418.132 1126.35 419.923 1126.35 422.132V531C1126.35 533.209 1124.56 535 1122.35 535H1111.61C1109.97 535 1108.49 533.997 1107.89 532.47L1092.66 493.934C1091.04 489.83 1084.94 490.991 1084.94 495.405V531C1084.94 533.209 1083.15 535 1080.94 535H1066.87Z" fill="#222222"/>
<path d="M982.597 535C980.09 535 978.201 532.721 978.666 530.258L999.23 421.39C999.587 419.5 1001.24 418.132 1003.16 418.132H1025.96C1027.88 418.132 1029.53 419.505 1029.89 421.399L1050.18 530.267C1050.64 532.727 1048.75 535 1046.25 535H1030.68C1028.71 535 1027.03 533.568 1026.73 531.624L1023.9 513.704C1023.59 511.76 1021.91 510.328 1019.95 510.328H1009.59C1007.63 510.328 1005.96 511.748 1005.64 513.682L1002.7 531.646C1002.39 533.58 1000.72 535 998.756 535H982.597ZM1009.12 490.351C1008.79 492.752 1010.66 494.89 1013.08 494.89H1016.33C1018.75 494.89 1020.62 492.752 1020.29 490.351L1018.67 478.424C1018.04 473.81 1011.37 473.81 1010.74 478.424L1009.12 490.351Z" fill="#222222"/>
<path d="M931.31 535C929.375 535 927.717 533.614 927.374 531.71L907.751 422.842C907.308 420.388 909.194 418.132 911.687 418.132H925.56C927.528 418.132 929.203 419.564 929.511 421.507L937.437 471.617C938.153 476.142 944.678 476.107 945.345 471.575L952.713 421.55C953.002 419.587 954.686 418.132 956.67 418.132H971.793C974.29 418.132 976.176 420.395 975.727 422.851L955.836 531.719C955.488 533.619 953.832 535 951.901 535H931.31Z" fill="#222222"/>
<path d="M837.048 535C834.541 535 832.652 532.721 833.117 530.258L853.681 421.39C854.038 419.5 855.689 418.132 857.612 418.132H880.407C882.333 418.132 883.986 419.505 884.339 421.399L904.634 530.267C905.093 532.727 903.205 535 900.702 535H885.128C883.16 535 881.484 533.568 881.177 531.624L878.348 513.704C878.041 511.76 876.365 510.328 874.397 510.328H864.043C862.084 510.328 860.413 511.748 860.096 513.682L857.154 531.646C856.838 533.58 855.167 535 853.207 535H837.048ZM863.571 490.351C863.244 492.752 865.111 494.89 867.535 494.89H870.781C873.204 494.89 875.071 492.752 874.744 490.351L873.121 478.424C872.493 473.81 865.822 473.81 865.194 478.424L863.571 490.351Z" fill="#222222"/>
<path d="M755.336 535C753.127 535 751.336 533.209 751.336 531V422.132C751.336 419.923 753.127 418.132 755.336 418.132H783.511C791.398 418.132 798.228 418.998 803.999 420.729C809.77 422.461 814.243 425.587 817.417 430.108C820.688 434.532 822.323 440.833 822.323 449.008C822.323 453.818 821.938 458.098 821.168 461.85C820.399 465.601 818.956 468.871 816.84 471.661C815.377 473.612 813.433 475.336 811.01 476.833C809.35 477.859 808.428 479.816 808.96 481.694L822.613 529.91C823.336 532.463 821.418 535 818.764 535H800.5C798.658 535 797.054 533.742 796.615 531.953L785.268 485.673C784.83 483.884 783.226 482.626 781.383 482.626H781.163C778.954 482.626 777.163 484.417 777.163 486.626V531C777.163 533.209 775.372 535 773.163 535H755.336ZM777.163 463.765C777.163 465.974 778.954 467.765 781.163 467.765H784.377C788.032 467.765 790.869 467.14 792.889 465.889C794.909 464.543 796.304 462.667 797.074 460.262C797.939 457.762 798.372 454.78 798.372 451.317C798.372 446.315 797.458 442.42 795.631 439.63C793.803 436.841 790.437 435.446 785.531 435.446H781.163C778.954 435.446 777.163 437.237 777.163 439.446V463.765Z" fill="#222222"/>
<path d="M671.068 535C668.562 535 666.673 532.721 667.138 530.258L687.702 421.39C688.059 419.5 689.71 418.132 691.632 418.132H714.427C716.354 418.132 718.007 419.505 718.36 421.399L738.655 530.267C739.113 532.727 737.225 535 734.722 535H719.149C717.18 535 715.505 533.568 715.198 531.624L712.368 513.704C712.061 511.76 710.385 510.328 708.417 510.328H698.064C696.104 510.328 694.433 511.748 694.116 513.682L691.175 531.646C690.858 533.58 689.187 535 687.227 535H671.068ZM697.592 490.351C697.265 492.752 699.132 494.89 701.555 494.89H704.801C707.225 494.89 709.091 492.752 708.765 490.351L707.142 478.424C706.514 473.81 699.843 473.81 699.215 478.424L697.592 490.351Z" fill="#222222"/>
<path d="M624.043 536.731C615.194 536.731 608.172 535.144 602.978 531.97C597.88 528.7 594.273 524.179 592.157 518.408C590.041 512.54 588.983 505.663 588.983 497.775V455.645C588.983 447.566 590.041 440.64 592.157 434.869C594.273 429.001 597.88 424.481 602.978 421.306C608.172 418.132 615.194 416.545 624.043 416.545C632.7 416.545 639.433 417.988 644.243 420.874C649.148 423.663 652.611 427.607 654.631 432.705C656.651 437.803 657.661 443.67 657.661 450.307V456.407C657.661 458.616 655.87 460.407 653.661 460.407H636.412C634.202 460.407 632.412 458.616 632.412 456.407V448.72C632.412 446.411 632.267 444.199 631.979 442.083C631.786 439.967 631.113 438.235 629.959 436.889C628.804 435.446 626.833 434.725 624.043 434.725C621.35 434.725 619.33 435.446 617.983 436.889C616.733 438.332 615.915 440.159 615.531 442.372C615.242 444.488 615.098 446.748 615.098 449.153V504.124C615.098 506.721 615.29 509.126 615.675 511.338C616.156 513.454 617.022 515.185 618.272 516.532C619.619 517.782 621.542 518.408 624.043 518.408C626.736 518.408 628.66 517.734 629.814 516.388C630.969 514.945 631.69 513.117 631.979 510.905C632.267 508.693 632.412 506.432 632.412 504.124V495.86C632.412 493.651 634.202 491.86 636.412 491.86H653.661C655.87 491.86 657.661 493.651 657.661 495.86V501.96C657.661 508.597 656.651 514.56 654.631 519.85C652.707 525.045 649.292 529.181 644.387 532.259C639.577 535.24 632.796 536.731 624.043 536.731Z" fill="#222222"/>
<path d="M1034.99 380.731C1027.68 380.731 1021.57 379.433 1016.67 376.836C1011.76 374.239 1008.06 370.247 1005.56 364.86C1003.41 360.149 1002.07 354.265 1001.56 347.208C1001.41 345.184 1002.89 343.424 1004.89 343.122L1018.94 341.01C1021.33 340.651 1023.47 342.477 1023.65 344.885C1023.86 347.848 1024.23 350.37 1024.75 352.452C1025.61 355.53 1026.77 357.743 1028.21 359.089C1029.75 360.436 1031.57 361.109 1033.69 361.109C1036.38 361.109 1038.12 360.195 1038.89 358.368C1039.75 356.54 1040.18 354.617 1040.18 352.597C1040.18 347.787 1039.03 343.747 1036.72 340.477C1034.41 337.11 1031.29 333.744 1027.34 330.377L1017.24 321.576C1012.82 317.825 1009.07 313.593 1005.99 308.879C1003.01 304.07 1001.52 298.155 1001.52 291.133C1001.52 281.226 1004.45 273.675 1010.32 268.481C1016.18 263.19 1024.17 260.545 1034.27 260.545C1040.52 260.545 1045.52 261.603 1049.27 263.719C1053.12 265.836 1056.01 268.625 1057.93 272.088C1059.95 275.454 1061.3 279.061 1061.97 282.909C1062.47 285.368 1062.83 287.765 1063.05 290.1C1063.24 292.154 1061.71 293.923 1059.66 294.175L1045.42 295.933C1043.07 296.221 1041.01 294.43 1040.83 292.078C1040.71 290.415 1040.54 288.898 1040.33 287.526C1040.04 284.929 1039.37 282.957 1038.31 281.61C1037.25 280.167 1035.61 279.446 1033.4 279.446C1031 279.446 1029.22 280.456 1028.06 282.476C1027.01 284.496 1026.48 286.516 1026.48 288.536C1026.48 292.864 1027.49 296.423 1029.51 299.213C1031.62 301.906 1034.36 304.743 1037.73 307.725L1047.4 316.238C1052.5 320.566 1056.78 325.472 1060.24 330.954C1063.8 336.437 1065.58 343.218 1065.58 351.298C1065.58 356.781 1064.33 361.782 1061.83 366.303C1059.32 370.728 1055.77 374.239 1051.15 376.836C1046.63 379.433 1041.24 380.731 1034.99 380.731Z" fill="#222222"/>
<path d="M922.021 379C919.811 379 918.021 377.209 918.021 375V266.132C918.021 263.923 919.811 262.132 922.021 262.132H950.195C958.083 262.132 964.912 262.998 970.683 264.729C976.454 266.461 980.927 269.587 984.101 274.108C987.372 278.532 989.007 284.833 989.007 293.008C989.007 297.818 988.622 302.098 987.853 305.849C987.083 309.601 985.64 312.871 983.524 315.661C982.061 317.612 980.117 319.336 977.694 320.833C976.034 321.859 975.112 323.816 975.644 325.694L989.297 373.91C990.02 376.463 988.102 379 985.448 379H967.184C965.342 379 963.738 377.742 963.299 375.953L951.952 329.673C951.514 327.884 949.91 326.626 948.067 326.626H947.847C945.638 326.626 943.847 328.417 943.847 330.626V375C943.847 377.209 942.056 379 939.847 379H922.021ZM943.847 307.765C943.847 309.974 945.638 311.765 947.847 311.765H951.061C954.716 311.765 957.554 311.14 959.573 309.889C961.593 308.543 962.988 306.667 963.758 304.262C964.623 301.762 965.056 298.78 965.056 295.317C965.056 290.315 964.142 286.42 962.315 283.63C960.487 280.841 957.121 279.446 952.215 279.446H947.847C945.638 279.446 943.847 281.237 943.847 283.446V307.765Z" fill="#222222"/>
<path d="M857.488 379C855.279 379 853.488 377.209 853.488 375V266.132C853.488 263.923 855.279 262.132 857.488 262.132H902.007C904.216 262.132 906.007 263.923 906.007 266.132V275.735C906.007 277.944 904.216 279.735 902.007 279.735H883.315C881.105 279.735 879.315 281.525 879.315 283.735V304.735C879.315 306.944 881.105 308.735 883.315 308.735H895.658C897.867 308.735 899.658 310.526 899.658 312.735V322.626C899.658 324.835 897.867 326.626 895.658 326.626H883.315C881.105 326.626 879.315 328.417 879.315 330.626V357.542C879.315 359.751 881.105 361.542 883.315 361.542H902.295C904.504 361.542 906.295 363.333 906.295 365.542V375C906.295 377.209 904.504 379 902.295 379H857.488Z" fill="#222222"/>
<path d="M775.626 379C773.417 379 771.626 377.209 771.626 375V266.132C771.626 263.923 773.417 262.132 775.626 262.132H793.452C795.661 262.132 797.452 263.923 797.452 266.132V289.629C797.452 294.012 803.486 295.204 805.152 291.149L816.056 264.612C816.672 263.112 818.134 262.132 819.756 262.132H836.361C839.206 262.132 841.141 265.017 840.063 267.649L821.26 313.527C820.888 314.437 820.863 315.451 821.19 316.378L841.448 373.667C842.368 376.269 840.437 379 837.677 379H819.975C818.245 379 816.711 377.887 816.173 376.243L801.677 331.886C801.099 330.117 798.706 329.853 797.756 331.453C797.557 331.788 797.452 332.17 797.452 332.559V375C797.452 377.209 795.661 379 793.452 379H775.626Z" fill="#222222"/>
<path d="M691.358 379C688.851 379 686.962 376.721 687.428 374.258L707.991 265.39C708.348 263.5 709.999 262.132 711.922 262.132H734.717C736.643 262.132 738.296 263.505 738.649 265.399L758.944 374.267C759.403 376.727 757.515 379 755.012 379H739.438C737.47 379 735.794 377.568 735.487 375.624L732.658 357.704C732.351 355.76 730.675 354.328 728.707 354.328H718.353C716.394 354.328 714.723 355.748 714.406 357.682L711.464 375.646C711.148 377.58 709.477 379 707.517 379H691.358ZM717.881 334.351C717.555 336.752 719.421 338.89 721.845 338.89H725.091C727.514 338.89 729.381 336.752 729.054 334.351L727.431 322.424C726.803 317.81 720.132 317.81 719.504 322.424L717.881 334.351Z" fill="#222222"/>
<path d="M594.207 379C591.971 379 590.169 377.167 590.208 374.931L592.089 266.063C592.127 263.881 593.906 262.132 596.089 262.132H616.544C618.467 262.132 620.118 263.5 620.475 265.39L628.918 310.074C629.733 314.386 635.892 314.43 636.768 310.13L645.899 265.333C646.278 263.471 647.917 262.132 649.818 262.132H669.312C671.494 262.132 673.273 263.881 673.311 266.063L675.193 374.931C675.231 377.167 673.43 379 671.193 379H660.83C658.664 379 656.891 377.276 656.831 375.111L655.881 340.987C655.747 336.165 648.771 335.659 647.943 340.411L641.79 375.687C641.456 377.602 639.794 379 637.85 379H628.24C626.31 379 624.655 377.622 624.306 375.724L617.551 339.047C616.679 334.312 609.725 334.87 609.618 339.684L608.836 375.088C608.788 377.263 607.012 379 604.837 379H594.207Z" fill="#222222"/>
<path d="M1218.9 223C1216.69 223 1214.9 221.209 1214.9 219V110.132C1214.9 107.923 1216.69 106.132 1218.9 106.132H1236.73C1238.93 106.132 1240.73 107.923 1240.73 110.132V219C1240.73 221.209 1238.93 223 1236.73 223H1218.9Z" fill="#222222"/>
<path d="M1133.93 223C1131.72 223 1129.93 221.209 1129.93 219V110.132C1129.93 107.923 1131.72 106.132 1133.93 106.132H1160.38C1165.38 106.132 1170.09 106.517 1174.52 107.287C1179.04 108.056 1183.03 109.547 1186.49 111.759C1189.95 113.875 1192.65 116.953 1194.57 120.993C1196.59 124.937 1197.6 130.179 1197.6 136.72C1197.6 141.433 1196.88 145.425 1195.44 148.695C1194.09 151.869 1192.12 154.418 1189.52 156.342C1188.1 157.439 1188.3 162.417 1189.84 163.344C1190.54 163.761 1191.2 164.217 1191.83 164.71C1194.91 167.019 1197.22 170.145 1198.76 174.089C1200.39 178.032 1201.21 182.794 1201.21 188.373C1201.21 194.432 1200.39 199.675 1198.76 204.099C1197.22 208.428 1194.96 211.987 1191.97 214.776C1188.99 217.565 1185.29 219.633 1180.86 220.98C1176.54 222.327 1171.53 223 1165.86 223H1133.93ZM1155.76 200.965C1155.76 203.174 1157.55 204.965 1159.76 204.965H1161.24C1166.92 204.965 1170.81 203.522 1172.93 200.636C1175.14 197.751 1176.25 193.519 1176.25 187.94C1176.25 183.515 1175.77 180.004 1174.81 177.407C1173.84 174.81 1172.26 172.934 1170.04 171.78C1167.83 170.53 1164.85 169.905 1161.1 169.905H1159.76C1157.55 169.905 1155.76 171.695 1155.76 173.905V200.965ZM1155.76 148.879C1155.76 151.089 1157.55 152.879 1159.76 152.879H1160.81C1164.75 152.879 1167.74 152.302 1169.76 151.148C1171.78 149.898 1173.12 148.118 1173.8 145.81C1174.56 143.501 1174.95 140.712 1174.95 137.441C1174.95 134.363 1174.37 131.814 1173.22 129.794C1172.16 127.678 1170.52 126.091 1168.31 125.033C1166.2 123.975 1163.5 123.446 1160.23 123.446H1159.76C1157.55 123.446 1155.76 125.237 1155.76 127.446V148.879Z" fill="#222222"/>
<path d="M1090.68 223C1088.47 223 1086.68 221.209 1086.68 219V110.132C1086.68 107.923 1088.47 106.132 1090.68 106.132H1108.51C1110.72 106.132 1112.51 107.923 1112.51 110.132V219C1112.51 221.209 1110.72 223 1108.51 223H1090.68Z" fill="#222222"/>
<path d="M1002.91 223C1000.7 223 998.907 221.209 998.907 219V110.132C998.907 107.923 1000.7 106.132 1002.91 106.132H1020.73C1022.94 106.132 1024.73 107.923 1024.73 110.132V149.456C1024.73 151.666 1026.52 153.456 1028.73 153.456H1038.91C1041.12 153.456 1042.91 151.666 1042.91 149.456V110.132C1042.91 107.923 1044.7 106.132 1046.91 106.132H1064.74C1066.95 106.132 1068.74 107.923 1068.74 110.132V219C1068.74 221.209 1066.95 223 1064.74 223H1046.91C1044.7 223 1042.91 221.209 1042.91 219V175.924C1042.91 173.715 1041.12 171.924 1038.91 171.924H1028.73C1026.52 171.924 1024.73 173.715 1024.73 175.924V219C1024.73 221.209 1022.94 223 1020.73 223H1002.91Z" fill="#222222"/>
<path d="M955.381 224.731C948.071 224.731 941.963 223.433 937.057 220.836C932.152 218.239 928.449 214.247 925.948 208.86C923.799 204.149 922.466 198.265 921.951 191.208C921.803 189.184 923.278 187.424 925.285 187.122L939.332 185.01C941.721 184.651 943.865 186.477 944.038 188.885C944.25 191.848 944.617 194.37 945.137 196.452C946.003 199.53 947.157 201.743 948.6 203.089C950.139 204.436 951.967 205.109 954.083 205.109C956.776 205.109 958.507 204.195 959.277 202.368C960.142 200.54 960.575 198.617 960.575 196.597C960.575 191.787 959.421 187.747 957.113 184.477C954.804 181.11 951.678 177.744 947.734 174.377L937.635 165.576C933.21 161.825 929.459 157.593 926.381 152.879C923.399 148.07 921.908 142.155 921.908 135.133C921.908 125.226 924.842 117.675 930.709 112.481C936.577 107.19 944.56 104.545 954.66 104.545C960.912 104.545 965.914 105.603 969.665 107.719C973.512 109.836 976.398 112.625 978.322 116.088C980.342 119.454 981.688 123.061 982.362 126.909C982.866 129.368 983.226 131.765 983.441 134.1C983.63 136.154 982.097 137.923 980.051 138.175L965.807 139.933C963.466 140.221 961.398 138.43 961.223 136.077C961.098 134.415 960.931 132.898 960.72 131.526C960.431 128.929 959.758 126.957 958.7 125.61C957.642 124.167 956.006 123.446 953.794 123.446C951.389 123.446 949.61 124.456 948.456 126.476C947.398 128.496 946.869 130.516 946.869 132.536C946.869 136.864 947.879 140.423 949.898 143.213C952.015 145.906 954.756 148.743 958.122 151.725L967.789 160.238C972.887 164.566 977.168 169.472 980.63 174.954C984.189 180.437 985.969 187.218 985.969 195.298C985.969 200.781 984.718 205.782 982.217 210.303C979.717 214.728 976.158 218.239 971.541 220.836C967.02 223.433 961.633 224.731 955.381 224.731Z" fill="#222222"/>
<path d="M873.295 224.731C864.542 224.731 857.616 223.192 852.518 220.114C847.42 217.036 843.765 212.612 841.553 206.841C839.341 201.069 838.234 194.192 838.234 186.208V142.78C838.234 134.7 839.341 127.823 841.553 122.148C843.765 116.472 847.42 112.144 852.518 109.162C857.616 106.084 864.542 104.545 873.295 104.545C882.144 104.545 889.118 106.084 894.215 109.162C899.41 112.144 903.113 116.472 905.325 122.148C907.537 127.823 908.644 134.7 908.644 142.78V186.208C908.644 194.192 907.537 201.069 905.325 206.841C903.113 212.612 899.41 217.036 894.215 220.114C889.118 223.192 882.144 224.731 873.295 224.731ZM873.295 206.408C875.988 206.408 877.96 205.734 879.21 204.388C880.461 203.041 881.278 201.31 881.663 199.194C882.048 197.078 882.24 194.913 882.24 192.701V136.431C882.24 134.123 882.048 131.959 881.663 129.939C881.278 127.823 880.461 126.091 879.21 124.745C877.96 123.398 875.988 122.725 873.295 122.725C870.794 122.725 868.918 123.398 867.668 124.745C866.417 126.091 865.6 127.823 865.215 129.939C864.83 131.959 864.638 134.123 864.638 136.431V192.701C864.638 194.913 864.782 197.078 865.071 199.194C865.455 201.31 866.225 203.041 867.379 204.388C868.63 205.734 870.601 206.408 873.295 206.408Z" fill="#222222"/>
<path d="M741.87 223C739.633 223 737.831 221.167 737.87 218.931L739.752 110.063C739.79 107.881 741.569 106.132 743.751 106.132H764.207C766.129 106.132 767.78 107.5 768.137 109.39L776.581 154.074C777.396 158.386 783.554 158.43 784.431 154.13L793.561 109.333C793.941 107.471 795.579 106.132 797.481 106.132H816.974C819.156 106.132 820.936 107.881 820.974 110.063L822.855 218.931C822.894 221.167 821.092 223 818.856 223H808.492C806.326 223 804.554 221.276 804.494 219.111L803.544 184.987C803.41 180.165 796.434 179.659 795.605 184.411L789.453 219.687C789.119 221.602 787.457 223 785.513 223H775.902C773.972 223 772.318 221.622 771.968 219.724L765.214 183.047C764.342 178.312 757.387 178.87 757.281 183.684L756.499 219.088C756.45 221.263 754.674 223 752.499 223H741.87Z" fill="#222222"/>
<path d="M687.166 224.731C678.413 224.731 671.488 223.192 666.39 220.114C661.292 217.036 657.637 212.612 655.424 206.841C653.212 201.069 652.106 194.192 652.106 186.208V142.78C652.106 134.7 653.212 127.823 655.424 122.148C657.637 116.472 661.292 112.144 666.39 109.162C671.488 106.084 678.413 104.545 687.166 104.545C696.016 104.545 702.989 106.084 708.087 109.162C713.281 112.144 716.984 116.472 719.197 122.148C721.409 127.823 722.515 134.7 722.515 142.78V186.208C722.515 194.192 721.409 201.069 719.197 206.841C716.984 212.612 713.281 217.036 708.087 220.114C702.989 223.192 696.016 224.731 687.166 224.731ZM687.166 206.408C689.86 206.408 691.831 205.734 693.082 204.388C694.332 203.041 695.15 201.31 695.535 199.194C695.919 197.078 696.112 194.913 696.112 192.701V136.431C696.112 134.123 695.919 131.959 695.535 129.939C695.15 127.823 694.332 126.091 693.082 124.745C691.831 123.398 689.86 122.725 687.166 122.725C684.665 122.725 682.79 123.398 681.539 124.745C680.289 126.091 679.471 127.823 679.087 129.939C678.702 131.959 678.509 134.123 678.509 136.431V192.701C678.509 194.913 678.654 197.078 678.942 199.194C679.327 201.31 680.096 203.041 681.251 204.388C682.501 205.734 684.473 206.408 687.166 206.408Z" fill="#222222"/>
<path d="M605.102 223C602.893 223 601.102 221.209 601.102 219V129.322C601.102 127.113 599.311 125.322 597.102 125.322H587.5C585.291 125.322 583.5 123.531 583.5 121.322V110.132C583.5 107.923 585.291 106.132 587.5 106.132H640.531C642.74 106.132 644.531 107.923 644.531 110.132V121.322C644.531 123.531 642.74 125.322 640.531 125.322H631.073C628.864 125.322 627.073 127.113 627.073 129.322V219C627.073 221.209 625.282 223 623.073 223H605.102Z" fill="#222222"/>
</svg>
