<svg width="660" height="72" viewBox="0 0 660 72" fill="none" xmlns="http://www.w3.org/2000/svg">
<path d="M0 64V8.00001C0 3.58174 3.58172 1.46126e-05 8 1.36685e-05L63.9636 0C68.3819 0 71.9636 3.58172 71.9636 8V64C71.9636 68.4183 68.3819 72 63.9636 72H8C3.58172 72 0 68.4183 0 64Z" fill="#F58220"/>
<path d="M652.243 11.9985L619.928 67.9985C618.499 70.4746 615.857 72 612.999 72L101.952 72C97.5342 72 93.9525 68.4183 93.9525 64V8.00002C93.9525 3.58174 97.5342 1.5378e-05 101.952 1.5378e-05H645.314C651.471 1.5378e-05 655.32 6.66517 652.243 11.9985Z" fill="#F58220"/>
<path d="M142.98 54.8748C140.068 54.8748 137.764 54.3628 136.068 53.3388C134.372 52.3148 133.156 50.8428 132.42 48.9228C131.684 47.0028 131.316 44.7148 131.316 42.0588V27.6108C131.316 24.9228 131.684 22.6348 132.42 20.7468C133.156 18.8588 134.372 17.4188 136.068 16.4268C137.764 15.4028 140.068 14.8908 142.98 14.8908C145.924 14.8908 148.244 15.4028 149.94 16.4268C151.668 17.4188 152.9 18.8588 153.636 20.7468C154.372 22.6348 154.74 24.9228 154.74 27.6108V42.0588C154.74 44.7148 154.372 47.0028 153.636 48.9228C152.9 50.8428 151.668 52.3148 149.94 53.3388C148.244 54.3628 145.924 54.8748 142.98 54.8748ZM142.98 48.7788C143.876 48.7788 144.532 48.5548 144.948 48.1068C145.364 47.6588 145.636 47.0828 145.764 46.3788C145.892 45.6748 145.956 44.9548 145.956 44.2188V25.4988C145.956 24.7308 145.892 24.0108 145.764 23.3388C145.636 22.6348 145.364 22.0588 144.948 21.6108C144.532 21.1628 143.876 20.9388 142.98 20.9388C142.148 20.9388 141.524 21.1628 141.108 21.6108C140.692 22.0588 140.42 22.6348 140.292 23.3388C140.164 24.0108 140.1 24.7308 140.1 25.4988V44.2188C140.1 44.9548 140.148 45.6748 140.244 46.3788C140.372 47.0828 140.628 47.6588 141.012 48.1068C141.428 48.5548 142.084 48.7788 142.98 48.7788ZM186.129 54.8748C183.697 54.8748 181.665 54.4428 180.033 53.5788C178.401 52.7148 177.169 51.3868 176.337 49.5948C175.505 47.7708 175.041 45.4188 174.945 42.5388L182.289 41.4348C182.321 43.0988 182.465 44.4428 182.721 45.4668C183.009 46.4908 183.393 47.2268 183.873 47.6748C184.385 48.1228 184.993 48.3468 185.697 48.3468C186.593 48.3468 187.169 48.0428 187.425 47.4348C187.713 46.8268 187.857 46.1868 187.857 45.5148C187.857 43.9148 187.473 42.5708 186.705 41.4828C185.937 40.3628 184.897 39.2428 183.585 38.1228L180.225 35.1948C178.753 33.9468 177.505 32.5388 176.481 30.9708C175.489 29.3708 174.993 27.4028 174.993 25.0668C174.993 21.7708 175.969 19.2588 177.921 17.5308C179.873 15.7708 182.529 14.8908 185.889 14.8908C187.969 14.8908 189.633 15.2428 190.881 15.9468C192.161 16.6508 193.121 17.5788 193.761 18.7308C194.433 19.8508 194.881 21.0508 195.105 22.3308C195.361 23.5788 195.505 24.7788 195.537 25.9308L188.145 26.8428C188.113 25.6908 188.033 24.6988 187.905 23.8668C187.809 23.0028 187.585 22.3468 187.233 21.8988C186.881 21.4188 186.337 21.1788 185.601 21.1788C184.801 21.1788 184.209 21.5148 183.825 22.1868C183.473 22.8588 183.297 23.5308 183.297 24.2028C183.297 25.6428 183.633 26.8268 184.305 27.7548C185.009 28.6508 185.921 29.5948 187.041 30.5868L190.257 33.4188C191.953 34.8588 193.377 36.4908 194.529 38.3148C195.713 40.1388 196.305 42.3948 196.305 45.0828C196.305 46.9068 195.889 48.5708 195.057 50.0748C194.225 51.5468 193.041 52.7148 191.505 53.5788C190.001 54.4428 188.209 54.8748 186.129 54.8748ZM214.059 54.2988L221.403 15.4188H231.195L238.443 54.2988H230.523L229.227 46.0908H223.515L222.171 54.2988H214.059ZM224.283 40.9548H228.411L226.347 25.7868L224.283 40.9548ZM258.208 54.2988V15.4188H266.8V31.3068L273.328 15.4188H281.728L274.528 32.9868L282.064 54.2988H273.328L267.712 37.1148L266.8 38.6508V54.2988H258.208ZM299.41 54.2988L306.754 15.4188H316.546L323.794 54.2988H315.874L314.578 46.0908H308.866L307.522 54.2988H299.41ZM309.634 40.9548H313.762L311.698 25.7868L309.634 40.9548Z" fill="white"/>
</svg>
