<svg width="660" height="72" viewBox="0 0 660 72" fill="none" xmlns="http://www.w3.org/2000/svg">
<path d="M0 64V8.00001C0 3.58174 3.58172 1.46126e-05 8 1.36685e-05L63.9636 0C68.3819 0 71.9636 3.58172 71.9636 8V64C71.9636 68.4183 68.3819 72 63.9636 72H8C3.58172 72 0 68.4183 0 64Z" fill="#7BA23F"/>
<path d="M652.243 11.9985L619.928 67.9985C618.499 70.4746 615.857 72 612.999 72L101.952 72C97.5342 72 93.9525 68.4183 93.9525 64V8.00002C93.9525 3.58174 97.5342 1.5378e-05 101.952 1.5378e-05H645.314C651.471 1.5378e-05 655.32 6.66517 652.243 11.9985Z" fill="#7BA23F"/>
<path d="M131.844 54.2988V15.4188H137.892L145.86 34.1388V15.4188H152.964V54.2988H147.156L139.188 34.1388V54.2988H131.844ZM172.718 54.2988L180.062 15.4188H189.854L197.102 54.2988H189.182L187.886 46.0908H182.174L180.83 54.2988H172.718ZM182.942 40.9548H187.07L185.006 25.7868L182.942 40.9548ZM216.868 54.2988V15.4188H227.572C230.196 15.4188 232.468 15.7068 234.388 16.2828C236.308 16.8588 237.796 17.8988 238.852 19.4028C239.94 20.8748 240.484 22.9708 240.484 25.6908C240.484 27.2908 240.356 28.7148 240.1 29.9628C239.844 31.2108 239.364 32.2988 238.66 33.2268C237.988 34.1228 237.012 34.8748 235.732 35.4828L241.06 54.2988H232.18L227.908 36.8748H225.46V54.2988H216.868ZM225.46 31.9308H227.86C229.076 31.9308 230.02 31.7228 230.692 31.3068C231.364 30.8588 231.828 30.2348 232.084 29.4348C232.372 28.6028 232.516 27.6108 232.516 26.4588C232.516 24.7948 232.212 23.4988 231.604 22.5708C230.996 21.6428 229.876 21.1788 228.244 21.1788H225.46V31.9308ZM259.617 54.2988L266.961 15.4188H276.753L284.001 54.2988H276.081L274.785 46.0908H269.073L267.729 54.2988H259.617ZM269.841 40.9548H273.969L271.905 25.7868L269.841 40.9548Z" fill="white"/>
</svg>
