<svg width="660" height="72" viewBox="0 0 660 72" fill="none" xmlns="http://www.w3.org/2000/svg">
<path d="M0 64V8.00001C0 3.58174 3.58172 1.46126e-05 8 1.36685e-05L63.9636 0C68.3819 0 71.9636 3.58172 71.9636 8V64C71.9636 68.4183 68.3819 72 63.9636 72H8C3.58172 72 0 68.4183 0 64Z" fill="#0076B6"/>
<path d="M652.243 11.9985L619.928 67.9985C618.499 70.4746 615.857 72 612.999 72L101.952 72C97.5342 72 93.9525 68.4183 93.9525 64V8.00002C93.9525 3.58174 97.5342 1.5378e-05 101.952 1.5378e-05H645.314C651.471 1.5378e-05 655.32 6.66517 652.243 11.9985Z" fill="#0076B6"/>
<path d="M131.988 54.2988V15.4188H140.58V31.1628H146.628V15.4188H155.22V54.2988H146.628V37.3068H140.58V54.2988H131.988ZM181.877 54.2988V38.4108L174.485 15.4188H182.597L186.293 27.7068L189.605 15.4188H197.381L190.133 38.4108V54.2988H181.877ZM226.832 54.8748C223.92 54.8748 221.616 54.3628 219.92 53.3388C218.224 52.3148 217.008 50.8428 216.272 48.9228C215.536 47.0028 215.168 44.7148 215.168 42.0588V27.6108C215.168 24.9228 215.536 22.6348 216.272 20.7468C217.008 18.8588 218.224 17.4188 219.92 16.4268C221.616 15.4028 223.92 14.8908 226.832 14.8908C229.776 14.8908 232.096 15.4028 233.792 16.4268C235.52 17.4188 236.752 18.8588 237.488 20.7468C238.224 22.6348 238.592 24.9228 238.592 27.6108V42.0588C238.592 44.7148 238.224 47.0028 237.488 48.9228C236.752 50.8428 235.52 52.3148 233.792 53.3388C232.096 54.3628 229.776 54.8748 226.832 54.8748ZM226.832 48.7788C227.728 48.7788 228.384 48.5548 228.8 48.1068C229.216 47.6588 229.488 47.0828 229.616 46.3788C229.744 45.6748 229.808 44.9548 229.808 44.2188V25.4988C229.808 24.7308 229.744 24.0108 229.616 23.3388C229.488 22.6348 229.216 22.0588 228.8 21.6108C228.384 21.1628 227.728 20.9388 226.832 20.9388C226 20.9388 225.376 21.1628 224.96 21.6108C224.544 22.0588 224.272 22.6348 224.144 23.3388C224.016 24.0108 223.952 24.7308 223.952 25.4988V44.2188C223.952 44.9548 224 45.6748 224.096 46.3788C224.224 47.0828 224.48 47.6588 224.864 48.1068C225.28 48.5548 225.936 48.7788 226.832 48.7788ZM269.789 54.8748C267.101 54.8748 264.973 54.3148 263.405 53.1948C261.869 52.0748 260.765 50.5068 260.093 48.4908C259.453 46.4428 259.133 44.0908 259.133 41.4348V28.3788C259.133 25.6268 259.485 23.2428 260.189 21.2268C260.893 19.2108 262.093 17.6588 263.789 16.5708C265.517 15.4508 267.853 14.8908 270.797 14.8908C273.677 14.8908 275.933 15.3708 277.565 16.3308C279.229 17.2908 280.413 18.6188 281.117 20.3148C281.821 22.0108 282.173 23.9948 282.173 26.2668V28.7628H273.773V25.5948C273.773 24.7628 273.709 23.9948 273.581 23.2908C273.485 22.5868 273.229 22.0268 272.813 21.6108C272.429 21.1628 271.789 20.9388 270.893 20.9388C269.965 20.9388 269.293 21.1948 268.877 21.7068C268.461 22.1868 268.189 22.7948 268.061 23.5308C267.965 24.2668 267.917 25.0348 267.917 25.8348V43.8348C267.917 44.6988 267.997 45.5148 268.157 46.2828C268.349 47.0188 268.669 47.6268 269.117 48.1068C269.597 48.5548 270.269 48.7788 271.133 48.7788C272.029 48.7788 272.717 48.5388 273.197 48.0588C273.677 47.5788 274.013 46.9548 274.205 46.1868C274.397 45.4188 274.493 44.6028 274.493 43.7388V39.1788H270.989V34.1388H282.221V54.2988H276.557L276.077 51.0828C275.565 52.1708 274.813 53.0828 273.821 53.8188C272.829 54.5228 271.485 54.8748 269.789 54.8748ZM314.574 54.8748C311.662 54.8748 309.358 54.3628 307.662 53.3388C305.966 52.3148 304.75 50.8428 304.014 48.9228C303.278 47.0028 302.91 44.7148 302.91 42.0588V27.6108C302.91 24.9228 303.278 22.6348 304.014 20.7468C304.75 18.8588 305.966 17.4188 307.662 16.4268C309.358 15.4028 311.662 14.8908 314.574 14.8908C317.518 14.8908 319.838 15.4028 321.534 16.4268C323.262 17.4188 324.494 18.8588 325.23 20.7468C325.966 22.6348 326.334 24.9228 326.334 27.6108V42.0588C326.334 44.7148 325.966 47.0028 325.23 48.9228C324.494 50.8428 323.262 52.3148 321.534 53.3388C319.838 54.3628 317.518 54.8748 314.574 54.8748ZM314.574 48.7788C315.47 48.7788 316.126 48.5548 316.542 48.1068C316.958 47.6588 317.23 47.0828 317.358 46.3788C317.486 45.6748 317.55 44.9548 317.55 44.2188V25.4988C317.55 24.7308 317.486 24.0108 317.358 23.3388C317.23 22.6348 316.958 22.0588 316.542 21.6108C316.126 21.1628 315.47 20.9388 314.574 20.9388C313.742 20.9388 313.118 21.1628 312.702 21.6108C312.286 22.0588 312.014 22.6348 311.886 23.3388C311.758 24.0108 311.694 24.7308 311.694 25.4988V44.2188C311.694 44.9548 311.742 45.6748 311.838 46.3788C311.966 47.0828 312.222 47.6588 312.606 48.1068C313.022 48.5548 313.678 48.7788 314.574 48.7788Z" fill="white"/>
</svg>
