<svg width="660" height="72" viewBox="0 0 660 72" fill="none" xmlns="http://www.w3.org/2000/svg">
<path d="M0 64V8.00001C0 3.58174 3.58172 1.46126e-05 8 1.36685e-05L63.9636 0C68.3819 0 71.9636 3.58172 71.9636 8V64C71.9636 68.4183 68.3819 72 63.9636 72H8C3.58172 72 0 68.4183 0 64Z" fill="#1B4E8A"/>
<path d="M652.243 11.9985L619.928 67.9985C618.499 70.4746 615.857 72 612.999 72L101.952 72C97.5342 72 93.9525 68.4183 93.9525 64V8.00002C93.9525 3.58174 97.5342 1.5378e-05 101.952 1.5378e-05H645.314C651.471 1.5378e-05 655.32 6.66517 652.243 11.9985Z" fill="#1B4E8A"/>
<path d="M135.384 54V21.504H129.528V15.12H149.832V21.504H144.024V54H135.384ZM179.856 54.576C176.944 54.576 174.64 54.064 172.944 53.04C171.248 52.016 170.032 50.544 169.296 48.624C168.56 46.704 168.192 44.416 168.192 41.76V27.312C168.192 24.624 168.56 22.336 169.296 20.448C170.032 18.56 171.248 17.12 172.944 16.128C174.64 15.104 176.944 14.592 179.856 14.592C182.8 14.592 185.12 15.104 186.816 16.128C188.544 17.12 189.776 18.56 190.512 20.448C191.248 22.336 191.616 24.624 191.616 27.312V41.76C191.616 44.416 191.248 46.704 190.512 48.624C189.776 50.544 188.544 52.016 186.816 53.04C185.12 54.064 182.8 54.576 179.856 54.576ZM179.856 48.48C180.752 48.48 181.408 48.256 181.824 47.808C182.24 47.36 182.512 46.784 182.64 46.08C182.768 45.376 182.832 44.656 182.832 43.92V25.2C182.832 24.432 182.768 23.712 182.64 23.04C182.512 22.336 182.24 21.76 181.824 21.312C181.408 20.864 180.752 20.64 179.856 20.64C179.024 20.64 178.4 20.864 177.984 21.312C177.568 21.76 177.296 22.336 177.168 23.04C177.04 23.712 176.976 24.432 176.976 25.2V43.92C176.976 44.656 177.024 45.376 177.12 46.08C177.248 46.784 177.504 47.36 177.888 47.808C178.304 48.256 178.96 48.48 179.856 48.48ZM212.685 54V15.12H221.277V31.008L227.805 15.12H236.205L229.005 32.688L236.541 54H227.805L222.189 36.816L221.277 38.352V54H212.685ZM266.991 54.576C264.015 54.576 261.679 54.096 259.983 53.136C258.319 52.144 257.151 50.72 256.479 48.864C255.807 46.976 255.471 44.672 255.471 41.952V15.12H263.967V43.248C263.967 44.048 264.031 44.848 264.159 45.648C264.287 46.448 264.559 47.104 264.975 47.616C265.423 48.128 266.095 48.384 266.991 48.384C267.919 48.384 268.591 48.128 269.007 47.616C269.423 47.104 269.679 46.448 269.775 45.648C269.903 44.848 269.967 44.048 269.967 43.248V15.12H278.511V41.952C278.511 44.672 278.159 46.976 277.455 48.864C276.783 50.72 275.615 52.144 273.951 53.136C272.287 54.096 269.967 54.576 266.991 54.576ZM310.138 54.576C307.706 54.576 305.674 54.144 304.042 53.28C302.41 52.416 301.178 51.088 300.346 49.296C299.514 47.472 299.05 45.12 298.954 42.24L306.298 41.136C306.33 42.8 306.474 44.144 306.73 45.168C307.018 46.192 307.402 46.928 307.882 47.376C308.394 47.824 309.002 48.048 309.706 48.048C310.602 48.048 311.178 47.744 311.434 47.136C311.722 46.528 311.866 45.888 311.866 45.216C311.866 43.616 311.482 42.272 310.714 41.184C309.946 40.064 308.906 38.944 307.594 37.824L304.234 34.896C302.762 33.648 301.514 32.24 300.49 30.672C299.498 29.072 299.002 27.104 299.002 24.768C299.002 21.472 299.978 18.96 301.93 17.232C303.882 15.472 306.538 14.592 309.898 14.592C311.978 14.592 313.642 14.944 314.89 15.648C316.17 16.352 317.13 17.28 317.77 18.432C318.442 19.552 318.89 20.752 319.114 22.032C319.37 23.28 319.514 24.48 319.546 25.632L312.154 26.544C312.122 25.392 312.042 24.4 311.914 23.568C311.818 22.704 311.594 22.048 311.242 21.6C310.89 21.12 310.346 20.88 309.61 20.88C308.81 20.88 308.218 21.216 307.834 21.888C307.482 22.56 307.306 23.232 307.306 23.904C307.306 25.344 307.642 26.528 308.314 27.456C309.018 28.352 309.93 29.296 311.05 30.288L314.266 33.12C315.962 34.56 317.386 36.192 318.538 38.016C319.722 39.84 320.314 42.096 320.314 44.784C320.314 46.608 319.898 48.272 319.066 49.776C318.234 51.248 317.05 52.416 315.514 53.28C314.01 54.144 312.218 54.576 310.138 54.576ZM340.458 54V15.12H349.05V30.864H355.098V15.12H363.69V54H355.098V37.008H349.05V54H340.458ZM385.499 54V15.12H394.091V54H385.499ZM415.585 54L416.257 15.12H425.473L429.745 37.728L434.353 15.12H443.233L443.905 54H437.809L437.089 28.128L432.577 54H427.153L422.353 27.936L421.777 54H415.585ZM463.494 54L470.838 15.12H480.63L487.878 54H479.958L478.662 45.792H472.95L471.606 54H463.494ZM473.718 40.656H477.846L475.782 25.488L473.718 40.656Z" fill="white"/>
</svg>
