<svg width="660" height="72" viewBox="0 0 660 72" fill="none" xmlns="http://www.w3.org/2000/svg">
<path d="M0 64V8.00001C0 3.58174 3.58172 1.46126e-05 8 1.36685e-05L63.9636 0C68.3819 0 71.9636 3.58172 71.9636 8V64C71.9636 68.4183 68.3819 72 63.9636 72H8C3.58172 72 0 68.4183 0 64Z" fill="#6A2C70"/>
<path d="M652.243 11.9985L619.928 67.9985C618.499 70.4746 615.857 72 612.999 72L101.952 72C97.5342 72 93.9525 68.4183 93.9525 64V8.00002C93.9525 3.58174 97.5342 1.5378e-05 101.952 1.5378e-05H645.314C651.471 1.5378e-05 655.32 6.66517 652.243 11.9985Z" fill="#6A2C70"/>
<path d="M131.844 54.2988V15.4188H140.436V31.3068L146.964 15.4188H155.364L148.164 32.9868L155.7 54.2988H146.964L141.348 37.1148L140.436 38.6508V54.2988H131.844ZM179.814 54.2988V38.4108L172.422 15.4188H180.534L184.23 27.7068L187.542 15.4188H195.318L188.07 38.4108V54.2988H179.814ZM224.769 54.8748C221.857 54.8748 219.553 54.3628 217.857 53.3388C216.161 52.3148 214.945 50.8428 214.209 48.9228C213.473 47.0028 213.105 44.7148 213.105 42.0588V27.6108C213.105 24.9228 213.473 22.6348 214.209 20.7468C214.945 18.8588 216.161 17.4188 217.857 16.4268C219.553 15.4028 221.857 14.8908 224.769 14.8908C227.713 14.8908 230.033 15.4028 231.729 16.4268C233.457 17.4188 234.689 18.8588 235.425 20.7468C236.161 22.6348 236.529 24.9228 236.529 27.6108V42.0588C236.529 44.7148 236.161 47.0028 235.425 48.9228C234.689 50.8428 233.457 52.3148 231.729 53.3388C230.033 54.3628 227.713 54.8748 224.769 54.8748ZM224.769 48.7788C225.665 48.7788 226.321 48.5548 226.737 48.1068C227.153 47.6588 227.425 47.0828 227.553 46.3788C227.681 45.6748 227.745 44.9548 227.745 44.2188V25.4988C227.745 24.7308 227.681 24.0108 227.553 23.3388C227.425 22.6348 227.153 22.0588 226.737 21.6108C226.321 21.1628 225.665 20.9388 224.769 20.9388C223.937 20.9388 223.313 21.1628 222.897 21.6108C222.481 22.0588 222.209 22.6348 222.081 23.3388C221.953 24.0108 221.889 24.7308 221.889 25.4988V44.2188C221.889 44.9548 221.937 45.6748 222.033 46.3788C222.161 47.0828 222.417 47.6588 222.801 48.1068C223.217 48.5548 223.873 48.7788 224.769 48.7788ZM260.727 54.2988V21.8028H254.871V15.4188H275.175V21.8028H269.367V54.2988H260.727ZM305.199 54.8748C302.287 54.8748 299.983 54.3628 298.287 53.3388C296.591 52.3148 295.375 50.8428 294.639 48.9228C293.903 47.0028 293.535 44.7148 293.535 42.0588V27.6108C293.535 24.9228 293.903 22.6348 294.639 20.7468C295.375 18.8588 296.591 17.4188 298.287 16.4268C299.983 15.4028 302.287 14.8908 305.199 14.8908C308.143 14.8908 310.463 15.4028 312.159 16.4268C313.887 17.4188 315.119 18.8588 315.855 20.7468C316.591 22.6348 316.959 24.9228 316.959 27.6108V42.0588C316.959 44.7148 316.591 47.0028 315.855 48.9228C315.119 50.8428 313.887 52.3148 312.159 53.3388C310.463 54.3628 308.143 54.8748 305.199 54.8748ZM305.199 48.7788C306.095 48.7788 306.751 48.5548 307.167 48.1068C307.583 47.6588 307.855 47.0828 307.983 46.3788C308.111 45.6748 308.175 44.9548 308.175 44.2188V25.4988C308.175 24.7308 308.111 24.0108 307.983 23.3388C307.855 22.6348 307.583 22.0588 307.167 21.6108C306.751 21.1628 306.095 20.9388 305.199 20.9388C304.367 20.9388 303.743 21.1628 303.327 21.6108C302.911 22.0588 302.639 22.6348 302.511 23.3388C302.383 24.0108 302.319 24.7308 302.319 25.4988V44.2188C302.319 44.9548 302.367 45.6748 302.463 46.3788C302.591 47.0828 302.847 47.6588 303.231 48.1068C303.647 48.5548 304.303 48.7788 305.199 48.7788Z" fill="white"/>
</svg>
