<svg width="660" height="72" viewBox="0 0 660 72" fill="none" xmlns="http://www.w3.org/2000/svg">
<path d="M0 64V8.00001C0 3.58174 3.58172 1.46126e-05 8 1.36685e-05L63.9636 0C68.3819 0 71.9636 3.58172 71.9636 8V64C71.9636 68.4183 68.3819 72 63.9636 72H8C3.58172 72 0 68.4183 0 64Z" fill="#4F8A5B"/>
<path d="M652.243 11.9985L619.928 67.9985C618.499 70.4746 615.857 72 612.999 72L101.952 72C97.5342 72 93.9525 68.4183 93.9525 64V8.00002C93.9525 3.58174 97.5342 1.5378e-05 101.952 1.5378e-05H645.314C651.471 1.5378e-05 655.32 6.66517 652.243 11.9985Z" fill="#4F8A5B"/>
<path d="M142.164 54.8748C139.732 54.8748 137.7 54.4428 136.068 53.5788C134.436 52.7148 133.204 51.3868 132.372 49.5948C131.54 47.7708 131.076 45.4188 130.98 42.5388L138.324 41.4348C138.356 43.0988 138.5 44.4428 138.756 45.4668C139.044 46.4908 139.428 47.2268 139.908 47.6748C140.42 48.1228 141.028 48.3468 141.732 48.3468C142.628 48.3468 143.204 48.0428 143.46 47.4348C143.748 46.8268 143.892 46.1868 143.892 45.5148C143.892 43.9148 143.508 42.5708 142.74 41.4828C141.972 40.3628 140.932 39.2428 139.62 38.1228L136.26 35.1948C134.788 33.9468 133.54 32.5388 132.516 30.9708C131.524 29.3708 131.028 27.4028 131.028 25.0668C131.028 21.7708 132.004 19.2588 133.956 17.5308C135.908 15.7708 138.564 14.8908 141.924 14.8908C144.004 14.8908 145.668 15.2428 146.916 15.9468C148.196 16.6508 149.156 17.5788 149.796 18.7308C150.468 19.8508 150.916 21.0508 151.14 22.3308C151.396 23.5788 151.54 24.7788 151.572 25.9308L144.18 26.8428C144.148 25.6908 144.068 24.6988 143.94 23.8668C143.844 23.0028 143.62 22.3468 143.268 21.8988C142.916 21.4188 142.372 21.1788 141.636 21.1788C140.836 21.1788 140.244 21.5148 139.86 22.1868C139.508 22.8588 139.332 23.5308 139.332 24.2028C139.332 25.6428 139.668 26.8268 140.34 27.7548C141.044 28.6508 141.956 29.5948 143.076 30.5868L146.292 33.4188C147.988 34.8588 149.412 36.4908 150.564 38.3148C151.748 40.1388 152.34 42.3948 152.34 45.0828C152.34 46.9068 151.924 48.5708 151.092 50.0748C150.26 51.5468 149.076 52.7148 147.54 53.5788C146.036 54.4428 144.244 54.8748 142.164 54.8748ZM172.485 54.2988V15.4188H181.077V31.1628H187.125V15.4188H195.717V54.2988H187.125V37.3068H181.077V54.2988H172.485ZM217.525 54.2988V15.4188H226.117V54.2988H217.525ZM257.883 54.8748C255.195 54.8748 253.067 54.3148 251.499 53.1948C249.963 52.0748 248.859 50.5068 248.187 48.4908C247.547 46.4428 247.227 44.0908 247.227 41.4348V28.3788C247.227 25.6268 247.579 23.2428 248.283 21.2268C248.987 19.2108 250.187 17.6588 251.883 16.5708C253.611 15.4508 255.947 14.8908 258.891 14.8908C261.771 14.8908 264.027 15.3708 265.659 16.3308C267.323 17.2908 268.507 18.6188 269.211 20.3148C269.915 22.0108 270.267 23.9948 270.267 26.2668V28.7628H261.867V25.5948C261.867 24.7628 261.803 23.9948 261.675 23.2908C261.579 22.5868 261.323 22.0268 260.907 21.6108C260.523 21.1628 259.883 20.9388 258.987 20.9388C258.059 20.9388 257.387 21.1948 256.971 21.7068C256.555 22.1868 256.283 22.7948 256.155 23.5308C256.059 24.2668 256.011 25.0348 256.011 25.8348V43.8348C256.011 44.6988 256.091 45.5148 256.251 46.2828C256.443 47.0188 256.763 47.6268 257.211 48.1068C257.691 48.5548 258.363 48.7788 259.227 48.7788C260.123 48.7788 260.811 48.5388 261.291 48.0588C261.771 47.5788 262.107 46.9548 262.299 46.1868C262.491 45.4188 262.587 44.6028 262.587 43.7388V39.1788H259.083V34.1388H270.315V54.2988H264.651L264.171 51.0828C263.659 52.1708 262.907 53.0828 261.915 53.8188C260.923 54.5228 259.579 54.8748 257.883 54.8748ZM289.66 54.2988L297.004 15.4188H306.796L314.044 54.2988H306.124L304.828 46.0908H299.116L297.772 54.2988H289.66ZM299.884 40.9548H304.012L301.948 25.7868L299.884 40.9548Z" fill="white"/>
</svg>
