<svg width="660" height="72" viewBox="0 0 660 72" fill="none" xmlns="http://www.w3.org/2000/svg">
<path d="M0 64V8.00001C0 3.58174 3.58172 1.46126e-05 8 1.36685e-05L63.9636 0C68.3819 0 71.9636 3.58172 71.9636 8V64C71.9636 68.4183 68.3819 72 63.9636 72H8C3.58172 72 0 68.4183 0 64Z" fill="#F39800"/>
<path d="M652.243 11.9985L619.928 67.9985C618.499 70.4746 615.857 72 612.999 72L101.952 72C97.5342 72 93.9525 68.4183 93.9525 64V8.00002C93.9525 3.58174 97.5342 1.5378e-05 101.952 1.5378e-05H645.314C651.471 1.5378e-05 655.32 6.66517 652.243 11.9985Z" fill="#F39800"/>
<path d="M134.964 54.2988L130.26 15.4188H137.556L139.86 38.0748L142.788 15.4668H148.5L151.572 37.9308L153.924 15.4188H161.124L156.468 54.2988H148.98L145.668 30.8268L142.548 54.2988H134.964ZM178.296 54.2988L185.64 15.4188H195.432L202.68 54.2988H194.76L193.464 46.0908H187.752L186.408 54.2988H178.296ZM188.52 40.9548H192.648L190.584 25.7868L188.52 40.9548ZM222.446 54.2988V15.4188H231.038V31.3068L237.566 15.4188H245.966L238.766 32.9868L246.302 54.2988H237.566L231.95 37.1148L231.038 38.6508V54.2988H222.446ZM263.648 54.2988L270.992 15.4188H280.784L288.032 54.2988H280.112L278.816 46.0908H273.104L271.76 54.2988H263.648ZM273.872 40.9548H278L275.936 25.7868L273.872 40.9548ZM310.584 54.2988V38.4108L303.192 15.4188H311.304L315 27.7068L318.312 15.4188H326.088L318.84 38.4108V54.2988H310.584ZM341.219 54.2988L348.563 15.4188H358.355L365.603 54.2988H357.683L356.387 46.0908H350.675L349.331 54.2988H341.219ZM351.443 40.9548H355.571L353.507 25.7868L351.443 40.9548ZM385.224 54.2988L385.896 15.4188H395.112L399.384 38.0268L403.992 15.4188H412.872L413.544 54.2988H407.448L406.728 28.4268L402.216 54.2988H396.792L391.992 28.2348L391.416 54.2988H385.224ZM433.133 54.2988L440.477 15.4188H450.269L457.517 54.2988H449.597L448.301 46.0908H442.589L441.245 54.2988H433.133ZM443.357 40.9548H447.485L445.421 25.7868L443.357 40.9548Z" fill="white"/>
</svg>
